<?xml version="1.0" encoding="utf-8"?>
<!-- Generator: Adobe Illustrator 19.0.0, SVG Export Plug-In . SVG Version: 6.00 Build 0)  -->
<svg version="1.1" id="Capa_1" xmlns="http://www.w3.org/2000/svg" xmlns:xlink="http://www.w3.org/1999/xlink" x="0px" y="0px"
	 viewBox="0 0 180 180" style="enable-background:new 0 0 180 180;" xml:space="preserve">
<style type="text/css">
	.st0{fill:#FF7B00;}
</style>
<symbol  id="Aerolab_-_completo" viewBox="-195.3 -60 390.6 120.1">
	<path id="XMLID_151_" class="st0" d="M-96,24.1L-116,59c-0.6,1-1.9,1.4-2.9,0.8l-34.6-20.1c-0.8-0.5-1.2-1.4-1-2.3l11.8-57.9
		l-1.8-2c-2.9-3.3-5.4-5.2-10.2-5.2c-5.3,0-7.8,2.8-11.8,7.8c-4.7,6-10.6,13.4-24.9,13.4h-0.4c-1.9,0-3.5-1.6-3.5-3.5c0,0,0,0,0,0
		c0,0,0,0,0,0c0-2,1.6-3.5,3.5-3.5h0.4c10.9,0,15-5.2,19.4-10.7c3.9-4.9,8.3-10.5,17.3-10.5c7.7,0,12,3.6,15.5,7.5l12.7,14.5
		c0,0,0,0,0,0l30.3,34.4C-95.7,22.3-95.6,23.3-96,24.1z"/>
	<g id="XMLID_147_">
		<path id="XMLID_148_" class="st0" d="M48.5-15c-12.3,0-22.3-10.1-22.3-22.4c0-12.4,10-22.4,22.3-22.4s22.3,10.1,22.3,22.4
			C70.8-25.1,60.8-15,48.5-15z M48.5-52.4c-8.2,0-14.9,6.7-14.9,15c0,8.2,6.7,15,14.9,15s14.9-6.7,14.9-15
			C63.3-45.7,56.7-52.4,48.5-52.4z"/>
	</g>
	<g id="XMLID_145_">
		<path id="XMLID_146_" class="st0" d="M85.3,8.7h-3.7c-1,0-1.9-0.8-1.9-1.9v-63.4c0-1,0.8-1.9,1.9-1.9h3.7c1,0,1.9,0.8,1.9,1.9V6.8
			C87.2,7.8,86.3,8.7,85.3,8.7z"/>
	</g>
	<g id="XMLID_141_">
		<path id="XMLID_142_" class="st0" d="M-65.1-15.9h-3.7c-1,0-1.9-0.8-1.9-1.9v-2.9c-4.3,3.9-10.2,6.2-16.6,5.7
			c-10.9-0.8-19.7-9.7-20.5-20.6c-1-13.1,9.4-24.2,22.2-24.2c5.7,0,10.9,2.2,14.9,5.7v-2.5c0-1,0.8-1.9,1.9-1.9h3.7
			c1,0,1.9,0.8,1.9,1.9v38.8C-63.3-16.8-64.1-15.9-65.1-15.9z M-85.6-52.4c-8.2,0-14.9,6.7-14.9,15c0,8.2,6.7,15,14.9,15
			c8.2,0,14.9-6.7,14.9-15C-70.7-45.7-77.4-52.4-85.6-52.4z"/>
	</g>
	<g id="XMLID_137_">
		<path id="XMLID_138_" class="st0" d="M138.9-16.1h-3.7c-1,0-1.9-0.8-1.9-1.9v-2.9c-4.3,3.9-10.2,6.2-16.6,5.7
			c-10.9-0.8-19.7-9.7-20.5-20.6C95.2-49,105.6-60,118.4-60c5.7,0,10.9,2.2,14.9,5.7v-2.5c0-1,0.8-1.9,1.9-1.9h3.7
			c1,0,1.9,0.8,1.9,1.9V-18C140.7-16.9,139.9-16.1,138.9-16.1z M118.4-52.6c-8.2,0-14.9,6.7-14.9,15s6.7,15,14.9,15
			c8.2,0,14.9-6.7,14.9-15C133.3-45.8,126.6-52.6,118.4-52.6z"/>
	</g>
	<g id="XMLID_133_">
		<path id="XMLID_134_" class="st0" d="M152.6-58.5h3.7c1,0,1.9,0.8,1.9,1.9v2.5c3.9-3.6,9.2-5.7,14.9-5.7c12.9,0,23.2,11,22.2,24.2
			c-0.8,11-9.6,19.8-20.5,20.6c-6.4,0.5-12.3-1.7-16.6-5.7V6.8c0,1-0.8,1.9-1.9,1.9h-3.7c-1,0-1.9-0.8-1.9-1.9v-63.4
			C150.7-57.6,151.6-58.5,152.6-58.5z M173-22.5c8.2,0,14.9-6.7,14.9-15c0-8.2-6.7-15-14.9-15s-14.9,6.7-14.9,15
			C158.2-29.2,164.8-22.5,173-22.5z"/>
	</g>
	<g id="XMLID_131_">
		<path id="XMLID_132_" class="st0" d="M19.5-15.1c-4.9-0.4-9.4-2.5-12.8-5.6v2.9c0,1-0.8,1.9-1.9,1.9H1.1c-1,0-1.9-0.8-1.9-1.9
			v-38.8c0-1,0.8-1.9,1.9-1.9h3.7c1,0,1.9,0.8,1.9,1.9v19.2c0,7.7,5.8,14,13.2,14.9c0.9,0.1,1.6,0.9,1.6,1.9v3.8
			C21.5-15.8,20.6-15,19.5-15.1z"/>
	</g>
	<g id="XMLID_85_">
		<path id="XMLID_86_" class="st0" d="M-32-15c-12.3,0-22.3-10.1-22.3-22.5c0-11.8,9.4-21.8,21.2-22.3c6.6-0.3,12.6,2.2,16.8,6.5
			c0.8,0.8,0.8,2.2-0.1,3l-2.6,2.2c-0.8,0.7-1.9,0.6-2.7-0.1c-2.7-2.6-6.3-4.1-10.3-4.1c-6.9,0-12.7,4.8-14.4,11.2h34.7
			c1.1,0,2,0.9,2,2v1.7C-9.7-25.1-19.7-15-32-15z M-46.4-33.7c1.7,6.4,7.5,11.2,14.4,11.2s12.7-4.8,14.4-11.2H-46.4z"/>
	</g>
</symbol>
<use xlink:href="#Aerolab_-_completo"  width="390.6" height="120.1" id="XMLID_34_" x="-195.3" y="-60" transform="matrix(0.4464 0 0 -0.4464 90 90.0002)" style="overflow:visible;"/>
</svg>
