<svg id="Layer_1" data-name="Layer 1" xmlns="http://www.w3.org/2000/svg" viewBox="0 0 260.5 106.28"><defs><style>.cls-1{fill:#df9030}.cls-2{fill:#c92253}.cls-3{fill:#786f34}.cls-4{fill:#4b6aad}.cls-5{fill:#89bc50}.cls-6{fill:#89c8d9}.cls-7{fill:#eac834}.cls-8{fill:#8f509a}.cls-9{fill:#41522c}.cls-10{fill:#32539b}.cls-11{fill:#d1772e}.cls-12{fill:#801e3a}.cls-13{fill:#f2efe7}</style></defs><title>areatres</title><path class="cls-1" d="M194 55.32l-4 2.29a.82.82 0 1 1-.81-1.43l.73-.42a.83.83 0 0 1 .29-.27l3-1.61 1.19-.68-30.8-16.79a1.32 1.32 0 0 0-1.63 0l-30.82 16.77L136.4 56a.82.82 0 0 1-.39 1.55.83.83 0 0 1-.39-.1l-5.38-2.88V88l1.34-.71 4-2.29a.82.82 0 1 1 .81 1.43l-.74.42a.86.86 0 0 1-.29.27l-3 1.61-1.19.68L162 106.22v-6.44a.82.82 0 1 1 1.64 0v6.47l30.83-16.82-5.25-2.81a.82.82 0 0 1 .78-1.45l5.34 2.83V54.6z" transform="translate(-.01 .03)"/><path class="cls-2" d="M259.14 55.32l-4 2.29a.82.82 0 1 1-.81-1.43l.73-.42a.8.8 0 0 1 .29-.27l3-1.61 1.19-.68-30.79-16.8a1.32 1.32 0 0 0-1.63 0l-30.85 16.78 5.25 2.82a.82.82 0 0 1-.78 1.45l-5.38-2.88V88l1.34-.71 4-2.29a.82.82 0 1 1 .81 1.43l-.74.42a.89.89 0 0 1-.29.27l-3 1.61-1.19.68 30.79 16.8v-6.43a.82.82 0 1 1 1.64 0v6.47l30.88-16.82-5.25-2.81a.82.82 0 0 1 .78-1.45l5.38 2.83V54.6z" transform="translate(-.01 .03)"/><path class="cls-3" d="M63.78 55.32l-4 2.29a.82.82 0 1 1-.78-1.43l.73-.42a.79.79 0 0 1 .29-.27l3-1.61 1.19-.68-30.82-16.8a1.32 1.32 0 0 0-1.63 0L.91 53.18 6.16 56a.82.82 0 0 1 .34 1.1.82.82 0 0 1-1.11.34L0 54.56V88l1.34-.71 4-2.29a.82.82 0 1 1 .81 1.43l-.73.42a.87.87 0 0 1-.29.27l-3 1.61-1.19.68 30.79 16.8v-6.43a.82.82 0 0 1 1.64 0v6.47l30.84-16.82L59 86.62a.82.82 0 1 1 .78-1.45L65.12 88V54.6z" transform="translate(-.01 .03)"/><path class="cls-4" d="M128.9 55.32l-4 2.29a.82.82 0 0 1-.81-1.43l.74-.42a.79.79 0 0 1 .29-.27l3-1.61 1.19-.68-30.79-16.8a1.32 1.32 0 0 0-1.63 0L66 53.18 71.28 56a.82.82 0 1 1-.78 1.45l-5.38-2.88V88l1.34-.71 4-2.29a.82.82 0 1 1 .81 1.43l-.73.42a.86.86 0 0 1-.29.27l-3 1.61-1.19.68 30.79 16.8v-6.43a.82.82 0 0 1 1.64 0v6.47l30.83-16.82-5.25-2.81a.82.82 0 1 1 .78-1.45l5.38 2.83V54.6z" transform="translate(-.01 .03)"/><path class="cls-5" d="M63.78 19.18l-4 2.29A.82.82 0 1 1 59 20l.73-.42a.81.81 0 0 1 .29-.27l3-1.61 1.19-.67L33.39.27a1.32 1.32 0 0 0-1.64 0L.94 17.08l5.25 2.81a.82.82 0 0 1-.78 1.45L0 18.46v33.45l1.34-.71 4-2.29a.82.82 0 0 1 .81 1.43l-.73.42a.82.82 0 0 1-.29.27l-3 1.61-1.13.68 30.79 16.8v-6.47a.82.82 0 0 1 1.64 0v6.47l30.8-16.82L59 50.49a.82.82 0 0 1 .39-1.55.81.81 0 0 1 .39.1l5.38 2.88V18.45z" transform="translate(-.01 .03)"/><path class="cls-6" d="M128.9 19.18l-4 2.29a.82.82 0 0 1-.81-1.43l.74-.42a.81.81 0 0 1 .29-.27l3-1.61 1.19-.67L98.52.27a1.32 1.32 0 0 0-1.64 0L66.07 17.08l5.25 2.81a.82.82 0 0 1-.78 1.45l-5.38-2.88v33.45l1.34-.71 4-2.29a.82.82 0 0 1 .81 1.43l-.73.42a.81.81 0 0 1-.29.27l-3 1.61-1.19.68 30.79 16.8v-6.47a.82.82 0 0 1 1.64 0v6.47l30.83-16.82-5.25-2.81a.82.82 0 0 1 .39-1.55.81.81 0 0 1 .39.1l5.38 2.88V18.45z" transform="translate(-.01 .03)"/><path class="cls-7" d="M194 19.18l-4 2.29a.82.82 0 1 1-.81-1.43l.73-.42a.85.85 0 0 1 .29-.27l3-1.61 1.19-.67L163.6.26a1.32 1.32 0 0 0-1.64 0l-30.81 16.81 5.25 2.81a.82.82 0 0 1-.78 1.45l-5.38-2.88V51.9l1.36-.72 4-2.29a.82.82 0 0 1 .81 1.43l-.74.42a.81.81 0 0 1-.29.27l-3 1.61-1.19.68L162 70.1v-6.47a.82.82 0 1 1 1.64 0v6.47l30.83-16.82-5.25-2.81a.82.82 0 0 1 .39-1.55.81.81 0 0 1 .39.1l5.38 2.88V18.45z" transform="translate(-.01 .03)"/><path class="cls-8" d="M259.14 19.18l-4 2.29a.82.82 0 1 1-.81-1.43l.73-.42a.82.82 0 0 1 .29-.27l3-1.61 1.19-.67L228.75.27a1.32 1.32 0 0 0-1.64 0L196.3 17.08l5.25 2.81a.82.82 0 0 1-.78 1.45l-5.38-2.88v33.45l1.34-.71 4-2.29a.82.82 0 1 1 .81 1.43l-.74.42a.83.83 0 0 1-.29.27l-3 1.61-1.19.68 30.79 16.8v-6.47a.82.82 0 0 1 1.64 0v6.47l30.85-16.84-5.25-2.81a.82.82 0 0 1 .39-1.55.8.8 0 0 1 .39.1l5.38 2.88V18.45z" transform="translate(-.01 .03)"/><path class="cls-9" d="M32.6 62.8a.82.82 0 0 1 .82.82v6.47l26.31-14.35a.82.82 0 0 1 .28-.26l3-1.61 1.14-.65L59 50.46a.81.81 0 0 1-.29-.26l-25.3-13.8a1.32 1.32 0 0 0-1.63 0L5.47 50.75a.82.82 0 0 1-.28.26l-3 1.61-1.19.65L6.21 56a.8.8 0 0 1 .29.26L31.79 70.1v-6.47a.82.82 0 0 1 .82-.82" transform="translate(-.01 .03)"/><path class="cls-10" d="M97.68 62.8a.82.82 0 0 1 .82.82v6.47l26.31-14.35a.81.81 0 0 1 .28-.26l3-1.61 1.14-.65-5.16-2.76a.81.81 0 0 1-.29-.26L98.49 36.4a1.32 1.32 0 0 0-1.63 0L70.6 50.76a.83.83 0 0 1-.28.26l-3 1.61-1.14.65L71.34 56a.8.8 0 0 1 .29.26l25.29 13.8v-6.42a.82.82 0 0 1 .82-.82" transform="translate(-.01 .03)"/><path class="cls-11" d="M162.8 62.8a.82.82 0 0 1 .82.82v6.47l26.31-14.35a.8.8 0 0 1 .28-.26l3-1.61 1.14-.65-5.16-2.76a.83.83 0 0 1-.29-.26l-25.3-13.79a1.32 1.32 0 0 0-1.63 0l-26.31 14.35a.8.8 0 0 1-.28.26l-3 1.61-1.14.65L136.4 56a.8.8 0 0 1 .29.26L162 70.11v-6.47a.82.82 0 0 1 .82-.82" transform="translate(-.01 .03)"/><path class="cls-12" d="M227.92 62.8a.82.82 0 0 1 .82.82v6.47l26.31-14.35a.8.8 0 0 1 .28-.26l3-1.61 1.14-.65-5.16-2.76a.81.81 0 0 1-.29-.26l-25.29-13.8a1.32 1.32 0 0 0-1.63 0l-26.31 14.35a.82.82 0 0 1-.28.26l-3 1.61-1.14.65 5.16 2.73a.81.81 0 0 1 .29.26l25.29 13.8v-6.43a.82.82 0 0 1 .82-.82" transform="translate(-.01 .03)"/><path class="cls-13" d="M45.26 49a1.61 1.61 0 0 1-.87.93 1.64 1.64 0 0 1-1.29.07 1.61 1.61 0 0 1-1-.87l-3-6.45h-7.58a1.68 1.68 0 0 1-1.2-2.85 1.59 1.59 0 0 1 1.2-.5h6l-5.31-11.4-9.37 21.14a1.61 1.61 0 0 1-.64.74 1.76 1.76 0 0 1-.91.25 2.14 2.14 0 0 1-.68-.11 1.67 1.67 0 0 1-.89-1 1.58 1.58 0 0 1 .06-1.29l10.91-24.48a1.53 1.53 0 0 1 .61-.72 1.66 1.66 0 0 1 .91-.27 1.77 1.77 0 0 1 .91.25 1.45 1.45 0 0 1 .61.7l11.46 24.52a1.6 1.6 0 0 1 .07 1.27m-1.5 12.25a1.74 1.74 0 0 1 0 2.38 1.59 1.59 0 0 1-1.2.49H34.4v22.77a1.61 1.61 0 0 1-.48 1.18 1.75 1.75 0 0 1-2.4 0 1.57 1.57 0 0 1-.5-1.19V64.07h-8.16a1.68 1.68 0 0 1-1.18-2.86 1.64 1.64 0 0 1 1.18-.48H42.6a1.63 1.63 0 0 1 1.2.48m62.8-11.13a1.79 1.79 0 0 1-1.33-.59l-8.15-9.08a1.79 1.79 0 0 1 1.12-3c.24 0 6.07-.81 6.07-5.68a6 6 0 0 0-5.45-5.86c-1.63 0-5.85 0-8.26.08v22.32a1.79 1.79 0 0 1-3.58 0V24.18a1.79 1.79 0 0 1 1.77-1.79c.31 0 7.72-.1 10.07-.1 3 0 9 2.85 9 9.44 0 4.69-3.19 7.24-6.16 8.43l6.2 6.91a1.79 1.79 0 0 1-1.33 3m.03 38.79a1.79 1.79 0 0 1-1.33-.59l-8.18-9.09a1.79 1.79 0 0 1 1.12-3c.24 0 6.07-.81 6.07-5.68a6 6 0 0 0-5.45-5.86c-1.63 0-5.85 0-8.26.07v22.37a1.79 1.79 0 0 1-3.58 0V63a1.79 1.79 0 0 1 1.76-1.79c.31 0 7.72-.1 10.07-.1 3 0 9 2.85 9 9.44 0 4.69-3.19 7.24-6.16 8.43l6.2 6.91a1.79 1.79 0 0 1-1.33 3m64.62-41.71A1.68 1.68 0 0 1 170 50h-14.4a1.63 1.63 0 0 1-1.19-.49 1.6 1.6 0 0 1-.5-1.18V24a1.6 1.6 0 0 1 .5-1.18 1.63 1.63 0 0 1 1.19-.49h14.32a1.68 1.68 0 0 1 1.18 2.87 1.63 1.63 0 0 1-1.18.47h-12.58v8.88h5a1.67 1.67 0 0 1 0 3.34h-5v8.88H170a1.64 1.64 0 0 1 1.18.47M171.15 86a1.68 1.68 0 0 1-1.15 2.88h-14.4a1.64 1.64 0 0 1-1.19-.49 1.59 1.59 0 0 1-.5-1.18V62.76a1.6 1.6 0 0 1 .5-1.18 1.64 1.64 0 0 1 1.19-.49h14.32A1.68 1.68 0 0 1 171.1 64a1.63 1.63 0 0 1-1.18.47h-12.58v8.88h5a1.67 1.67 0 0 1 0 3.34h-5v8.88H170a1.63 1.63 0 0 1 1.18.47M240.69 49a1.6 1.6 0 0 1-.87.93 1.63 1.63 0 0 1-1.29.08 1.61 1.61 0 0 1-1-.87l-3-6.45h-7.63a1.68 1.68 0 0 1-1.2-2.85 1.6 1.6 0 0 1 1.2-.49h6l-5.31-11.39-9.37 21.14a1.62 1.62 0 0 1-.65.74 1.75 1.75 0 0 1-.91.25 2.15 2.15 0 0 1-.68-.11 1.68 1.68 0 0 1-.89-1 1.59 1.59 0 0 1 .06-1.29l11-24.53a1.53 1.53 0 0 1 .61-.72 1.66 1.66 0 0 1 .91-.27 1.76 1.76 0 0 1 .91.25 1.42 1.42 0 0 1 .61.7L240.6 47.7a1.58 1.58 0 0 1 .08 1.27M228.6 88.86h-.6a12.07 12.07 0 0 1-3.54-.53 9.78 9.78 0 0 1-3.15-1.61A8.16 8.16 0 0 1 219 84a8.37 8.37 0 0 1-.87-3.94 1.6 1.6 0 0 1 .49-1.18 1.64 1.64 0 0 1 1.21-.5 1.69 1.69 0 0 1 1.66 1.62 5.29 5.29 0 0 0 .44 2.26 4.75 4.75 0 0 0 1.1 1.54 5.19 5.19 0 0 0 1.44 1 8.83 8.83 0 0 0 1.5.52 8.28 8.28 0 0 0 1.27.21h1.36a6.57 6.57 0 0 0 2-.34 6.89 6.89 0 0 0 1.86-1 5.44 5.44 0 0 0 1.37-1.42 3.18 3.18 0 0 0 .53-1.76 3.28 3.28 0 0 0-1.46-2.64 17.15 17.15 0 0 0-5-2.22l-.68-.23q-1.6-.57-3.25-1.21a13 13 0 0 1-3-1.59 8.26 8.26 0 0 1-2.14-2.25 5.85 5.85 0 0 1-.83-3.21 6.27 6.27 0 0 1 .7-2.94 7.24 7.24 0 0 1 2-2.33 9.49 9.49 0 0 1 3-1.54 12 12 0 0 1 3.69-.55q1 0 2.23.11a11.49 11.49 0 0 1 2.4.49 9.7 9.7 0 0 1 2.32 1.1 7.42 7.42 0 0 1 2 1.94c.15.23.32.51.5.83a7.61 7.61 0 0 1 .46 1c.13.36.23.7.32 1a3.26 3.26 0 0 1 .13.87 1.68 1.68 0 0 1-2.88 1.18 1.6 1.6 0 0 1-.5-1.18 6.75 6.75 0 0 0-.29-.82 4.93 4.93 0 0 0-.51-1q-1.56-2.24-6.19-2.24a8.71 8.71 0 0 0-2.14.26 7 7 0 0 0-1.9.78 4.37 4.37 0 0 0-1.34 1.22 3 3 0 0 0-.51 1.73 2.86 2.86 0 0 0 .48 1.65 4.81 4.81 0 0 0 1.37 1.29 11.32 11.32 0 0 0 2.19 1.08q1.29.5 2.89 1.06l.65.23q1.14.38 2.64.93a13 13 0 0 1 2.86 1.48 8.82 8.82 0 0 1 2.28 2.3 5.78 5.78 0 0 1 .93 3.34 6.27 6.27 0 0 1-.82 3.15 8.58 8.58 0 0 1-2.13 2.48 10.17 10.17 0 0 1-6.22 2.18" transform="translate(-.01 .03)"/></svg>