<svg id="Layer_1" data-name="Layer 1" xmlns="http://www.w3.org/2000/svg" viewBox="0 0 1099.61 340.48"><defs><style>.cls-1,.cls-5{fill:#a9d8f4}.cls-1,.cls-2,.cls-4,.cls-5,.cls-6,.cls-7{stroke:#5ab3e5}.cls-1,.cls-2,.cls-5,.cls-7{stroke-linecap:round}.cls-1,.cls-2,.cls-4,.cls-5,.cls-7{stroke-linejoin:round}.cls-1{stroke-width:16.74px}.cls-2,.cls-4,.cls-6{fill:none}.cls-2,.cls-4,.cls-5,.cls-6{stroke-width:5.81px}.cls-3{fill:#5ab3e5}.cls-6{stroke-miterlimit:10}.cls-7{fill:#feee0b;stroke-width:4.41px}.cls-8{fill:#212121}</style></defs><title>nodeschoolba</title><path class="cls-1" d="M288.73 251.15l-140.21 80.96L8.37 251.15V89.27l140.15-80.9 140.21 80.9v161.88z"/><path class="cls-2" d="M105.76 190.45h-55.7a4.42 4.42 0 0 0-4.42 4.42v42.44h27.54m142.98 0h37.89v-42.44a4.42 4.42 0 0 0-4.42-4.42h-57.4m-22.81 46.86h30.82m-111.22 0h39.6"/><circle class="cls-2" cx="81.13" cy="236.56" r="7.96"/><circle class="cls-2" cx="208.26" cy="236.56" r="7.96"/><path class="cls-2" d="M52.01 201.32h13.83v36H52.01zm63.47 11.11v24.88h11.12m96.95-35.99h13.83v36h-13.83zm-157.64 0h24.82v19.39H65.91zm121.51-.01h11.31v19.39h-19.96m19.96-19.38h24.82v19.39h-24.82z"/><path class="cls-2" d="M115.48 213.88v6.82H90.66v-19.39h19.9m137.3 13.33l-10.42 6.06v-19.39h10.42v13.33z"/><path class="cls-3" d="M112 267.63a.92.92 0 0 1 .32-1.26l2.59-1.52a2.86 2.86 0 0 1 2.27-.44 1.8 1.8 0 0 1 1.2 1 1.89 1.89 0 0 1-.06 2.15 2 2 0 0 1 2.4 1c.76 1.33.06 2.65-1.58 3.6l-2.65 1.58a.92.92 0 0 1-1.26-.32zm4.29.44c.69-.44 1-.88.69-1.45-.25-.51-.82-.51-1.52-.13l-1.58 1 .88 1.58zm2.15 2.65c.69-.44 1-.88.69-1.45-.25-.51-.82-.57-1.64-.13l-1.89 1.07.95 1.64zm26.42-6.15v-4a.95.95 0 1 1 1.89 0v4c0 1.39.69 2.08 1.83 2.08s1.83-.69 1.83-2v-4a.95.95 0 1 1 1.89 0v3.92c0 2.59-1.45 3.85-3.73 3.85a3.44 3.44 0 0 1-3.71-3.85zm31.45 5.71l3.28-5.75a.87.87 0 0 1 1.17-.37h.09l4 2.34a.91.91 0 0 1 .32 1.14.89.89 0 0 1-1.17.36l-3.28-1.89-.88 1.52 2.78 1.64a.83.83 0 0 1-.82 1.45l-2.78-1.64-.83 1.48 3.35 1.89a.83.83 0 0 1-.82 1.45l-4.11-2.4a.87.87 0 0 1-.37-1.17zm30.25-207.66l-57.33-33.05a.23.23 0 0 0-.19-.06h-.51a.57.57 0 0 0-.32.06h-.13a.48.48 0 0 0-.25.13h-.06l-56.4 32.59a1.39 1.39 0 0 0 1.39 2.4l50.15-28.93L121.56 63a1.4 1.4 0 1 0 2.1 1.85l.11-.14L147.07 35v29.06a1.39 1.39 0 0 0 2.78 0V35l23.3 29.68a1.32 1.32 0 0 0 1.07.57 1.51 1.51 0 0 0 .88-.32 1.41 1.41 0 0 0 .27-2L154 35.67 205.16 65a1.26 1.26 0 0 0 .69.19 1.35 1.35 0 0 0 1.2-.69 1.43 1.43 0 0 0-.45-2zm-.44 213.72a1.37 1.37 0 0 0-1.87-.52l-50.15 28.93 21.26-27.18a1.4 1.4 0 1 0-2.1-1.85l-.11.14-23.31 29.71v-29.1a1.39 1.39 0 0 0-2.78 0v29.1l-23.3-29.68a1.4 1.4 0 0 0-2.21 1.71l21.28 27.22-50.9-29.55a1.39 1.39 0 0 0-1.54 2.31l.15.09 57.35 33.09h.11a.22.22 0 0 1 .13.06h.15c.13 0 .19.06.32.06a.47.47 0 0 0 .32-.06h.06a.06.06 0 0 0 .06-.06c.06 0 .13-.06.19-.06l56.4-32.59a1.17 1.17 0 0 0 .44-1.77z"/><circle class="cls-3" cx="209.9" cy="273.69" r="1.77"/><circle class="cls-3" cx="86.43" cy="273.69" r="1.77"/><path class="cls-3" d="M96.92 87.38a1.12 1.12 0 0 0 .88-1.26c-.32-1.77-.69-3.47-1-5.24 1.83 1.58 3.73 3.22 5.49 4.8a1.5 1.5 0 0 0 1.26.44h.06a1.07 1.07 0 0 0 .89-1.22c-.44-2.59-.88-5.24-1.33-7.83a1.15 1.15 0 0 0-1.33-.88 1.17 1.17 0 0 0-.95 1.26c.32 1.71.63 3.41.88 5.05-1.77-1.58-3.54-3.09-5.37-4.67a1.41 1.41 0 0 0-1.33-.38c-.06 0-.13.06-.25.06a1.1 1.1 0 0 0-.9 1.27v.06c.57 2.59 1.07 5.18 1.64 7.77a1.14 1.14 0 0 0 1.36.77zm14.97-2.53a5.22 5.22 0 0 0 4.68-5.71V79c-.32-2.84-2.91-4.8-6.13-4.36a5.16 5.16 0 0 0-4.71 5.57v.37a5.29 5.29 0 0 0 6.16 4.27zm-3.79-4.67a3 3 0 0 1 2.38-3.51h.21a3.11 3.11 0 0 1 3.54 2.6v.09a3 3 0 0 1-2.47 3.45h-.12a3.16 3.16 0 0 1-3.54-2.64zm12.19 3.47c.95-.13 1.89-.19 2.78-.32a5.1 5.1 0 0 0 4.93-5.26v-.17c-.19-2.78-2.65-4.8-5.94-4.48-.95.13-2 .19-2.91.32a1.12 1.12 0 0 0-1 1.2c.32 2.59.57 5.18.88 7.77a1.14 1.14 0 0 0 1.26.94zm.25-8.08l1.77-.19a2.87 2.87 0 0 1 3.35 2.72 2.92 2.92 0 0 1-2.54 3.26h-.24l-1.71.19c-.25-1.98-.44-3.98-.63-5.98zm10.93 7.07c1.89-.13 3.73-.25 5.62-.32a1 1 0 0 0 .95-.95v-.07a1 1 0 0 0-1-.95c-1.52.06-3 .13-4.61.25-.06-.69-.06-1.39-.13-2.08l3.92-.19a.94.94 0 0 0 .95-.93v-.08a1 1 0 0 0-1-1l-3.92.19c-.06-.69-.06-1.33-.13-2 1.52-.13 3.09-.19 4.61-.25a1 1 0 1 0-.06-2c-2 .06-3.85.19-5.75.32a1.13 1.13 0 0 0-1.07 1.18l.57 7.77a1 1 0 0 0 1 1zm8.27-1.45a6.42 6.42 0 0 0 3.79 1.07c2.15-.06 3.66-1.14 3.66-3.16 0-1.77-1.2-2.46-3.28-3-1.77-.38-2.21-.63-2.27-1.26 0-.51.44-.88 1.33-.88a4.38 4.38 0 0 1 2.21.63.94.94 0 0 0 .57.13 1 1 0 0 0 .57-1.89A5.75 5.75 0 0 0 143 72c-2.15.06-3.6 1.33-3.54 3.09.06 2 1.45 2.46 3.47 3 1.71.38 2.08.69 2.08 1.26 0 .57-.51.95-1.45.95a4.51 4.51 0 0 1-2.59-.82.94.94 0 0 0-.63-.19 1.05 1.05 0 0 0-1 1.07 1.08 1.08 0 0 0 .4.83zm14.15 1.07a5.35 5.35 0 0 0 3.6-1.14 1 1 0 1 0-1.32-1.58 3.24 3.24 0 0 1-2.21.76 3 3 0 0 1-2.96-3.08v-.08a3 3 0 0 1 3-3.09h.13a3.51 3.51 0 0 1 2.08.76 1.15 1.15 0 0 0 .69.25 1.07 1.07 0 0 0 1.14-1 1.11 1.11 0 0 0-.44-.88 5.42 5.42 0 0 0-3.47-1.07 5.1 5.1 0 0 0-5.42 4.75v.36a5.28 5.28 0 0 0 5.18 5.04zm7.01.13a1.08 1.08 0 0 0 1.14-1v-.05c.06-1 .13-2 .13-3 1.39.06 2.78.13 4.11.25-.06 1-.13 2-.19 3a1.12 1.12 0 0 0 1 1.2 1.08 1.08 0 0 0 1.19-1v-.1l.57-8a1.13 1.13 0 0 0-1.06-1.2 1 1 0 0 0-1.2 1c-.06.95-.13 2-.19 2.91-1.39-.06-2.78-.19-4.17-.25.06-1 .13-2 .13-3a1.08 1.08 0 0 0-1-1.14h-.13a1.17 1.17 0 0 0-1.2 1.07c-.13 2.65-.19 5.31-.32 8a1.19 1.19 0 0 0 1.11 1.27zm14.65 1.18a5.22 5.22 0 0 0 5.92-4.41V79c.38-2.84-1.64-5.37-4.86-5.75a5.14 5.14 0 0 0-5.89 4.26v.41a5.19 5.19 0 0 0 4.72 5.61zM173 78.08a3 3 0 0 1 3.15-2.81h.26a3.09 3.09 0 0 1 2.8 3.35v.16a3 3 0 0 1-3.21 2.79h-.16a3.06 3.06 0 0 1-2.84-3.24v-.24zm14.68 7.02a5.32 5.32 0 0 0 6.19-4.23 5.12 5.12 0 0 0-4.21-5.87l-.4-.05a5.22 5.22 0 0 0-6.14 4.05v.27a5.17 5.17 0 0 0 4.47 5.79zm-2.28-5.53a3.06 3.06 0 0 1 3.41-2.67h.13a3 3 0 0 1 2.63 3.33v.27a3.1 3.1 0 0 1-6.13-.95zm10.68 6.73c1.71.32 3.41.63 5.12 1a1 1 0 1 0 .61-1.9h-.23c-1.33-.25-2.72-.57-4-.82.44-2.27.88-4.55 1.26-6.88a1.05 1.05 0 0 0-.81-1.25h-.14a1.1 1.1 0 0 0-1.32.82v.06c-.44 2.59-1 5.18-1.39 7.77a1.17 1.17 0 0 0 .9 1.2z"/><circle class="cls-3" cx="149.65" cy="176.68" r=".38"/><path class="cls-2" d="M218.43 142.57a224.69 224.69 0 0 0-138.82 0C75.32 129.24 71 116 66.66 102.65a266.86 266.86 0 0 1 164.71 0c-4.37 13.35-8.64 26.6-12.94 39.92z"/><path class="cls-4" d="M148.96 88.58v163.39M137.08 90.28l9.16 160.68M125.21 91.99l18.32 157.89M113.27 93.7l27.54 155.17M101.4 95.34l36.63 152.46M89.46 97.04l45.86 149.69M77.59 98.75l55.01 146.96M65.65 100.45l64.17 144.19m19.14-156.06v163.39m11.93-161.69l-9.15 160.68m21.03-158.97l-18.32 157.89M184.7 93.7l-27.53 155.17m39.41-153.53L159.95 247.8m48.57-150.76l-45.86 149.69m57.73-147.98l-55.01 146.96m66.95-145.26l-64.24 144.19"/><path class="cls-5" d="M148.96 106.14l-11.05 11.18-8.09 127.32 19.2 7.33 19.14-7.33-8.09-127.32-11.11-11.18z"/><path class="cls-2" d="M148.96 106.2v145.77"/><path class="cls-5" d="M85.05 144l-20.4 9.09c-1.52-.57-2.4-.95-4-1.52l-18.82-42.35c.57-1.52.95-2.4 1.52-4l20.4-9.09z"/><path class="cls-2" d="M53.47 149.71l5.37-2.4-15.09-33.92-5.37 2.4c-.44 1.2-.69 1.89-1.2 3.09l13.2 29.62c1.19.5 1.85.77 3.09 1.21z"/><path class="cls-6" d="M47.15 141.25a8.23 8.23 0 0 1-6.69-15"/><circle class="cls-3" cx="52.52" cy="112.14" r="2.02"/><circle class="cls-3" cx="60.03" cy="108.79" r="2.02"/><circle class="cls-3" cx="55.8" cy="119.53" r="2.02"/><circle class="cls-3" cx="63.32" cy="116.18" r="2.02"/><circle class="cls-3" cx="59.09" cy="126.92" r="2.02"/><circle class="cls-3" cx="66.6" cy="123.57" r="2.02"/><circle class="cls-3" cx="62.37" cy="134.31" r="2.02"/><circle class="cls-3" cx="69.95" cy="130.96" r="2.02"/><circle class="cls-3" cx="65.65" cy="141.69" r="2.02"/><circle class="cls-3" cx="73.23" cy="138.35" r="2.02"/><path class="cls-5" d="M213.23 143.34l20.4 9.09c1.52-.57 2.4-.95 4-1.52l18.76-42.34c-.57-1.52-1-2.4-1.52-4l-20.39-9z"/><path class="cls-2" d="M244.83 149l-5.37-2.4 15.09-33.92 5.37 2.4c.44 1.2.69 1.89 1.2 3.09l-13.2 29.62c-1.26.53-1.92.78-3.09 1.21z"/><path class="cls-6" d="M251.15 140.57a8.23 8.23 0 1 0 6.69-15"/><circle class="cls-3" cx="245.78" cy="111.44" r="2.02"/><circle class="cls-3" cx="238.2" cy="108.1" r="2.02"/><circle class="cls-3" cx="242.49" cy="118.83" r="2.02"/><circle class="cls-3" cx="234.91" cy="115.48" r="2.02"/><circle class="cls-3" cx="239.21" cy="126.22" r="2.02"/><circle class="cls-3" cx="231.63" cy="122.87" r="2.02"/><circle class="cls-3" cx="235.86" cy="133.61" r="2.02"/><circle class="cls-3" cx="228.35" cy="130.26" r="2.02"/><circle class="cls-3" cx="232.58" cy="141" r="2.02"/><circle class="cls-3" cx="225.06" cy="137.65" r="2.02"/><path class="cls-7" d="M157.36 183.31l-8.34 4.87-8.4-4.87v-9.66l8.4-4.8 8.34 4.8v9.66z"/><path class="cls-2" d="M129.82 244.64H37.17m225.53 0h-94.61"/><path class="cls-5" d="M67 175a6.66 6.66 0 1 0 0-9.42L57.7 175a6.66 6.66 0 1 1 0-9.42M232 175a6.66 6.66 0 1 1 0-9.42l9.28 9.41a6.66 6.66 0 1 0 0-9.42"/><path class="cls-2" d="M258.79 170.24h3.91m-227.17 0h4.17"/><path class="cls-3" d="M338.68 80.48h18.78l21.15 40.3 8 17.91h.5q-.62-6.47-1.43-14.43a150.08 150.08 0 0 1-.81-15.18v-28.6h17.36v81.09h-18.77l-21.15-40.43-8-17.66h-.5q.62 6.72 1.43 14.43a143.51 143.51 0 0 1 .81 14.93v28.73h-17.37zm115.68 82.6a37.48 37.48 0 0 1-15-2.92 32.54 32.54 0 0 1-11.63-8.4 38.55 38.55 0 0 1-7.5-13.31 54.88 54.88 0 0 1-2.67-17.79 54.33 54.33 0 0 1 2.67-17.73 36.67 36.67 0 0 1 7.53-13.06 32.3 32.3 0 0 1 11.63-8.09 41.53 41.53 0 0 1 30 0A32 32 0 0 1 481 89.93a37.35 37.35 0 0 1 7.55 13.07 54 54 0 0 1 2.67 17.6 54.93 54.93 0 0 1-2.67 17.79 38.58 38.58 0 0 1-7.55 13.36 32.56 32.56 0 0 1-11.63 8.4 37.49 37.49 0 0 1-15.01 2.93zm0-15.8a15.14 15.14 0 0 0 13.18-7.15q4.85-7.15 4.85-19.47t-4.85-19a16.13 16.13 0 0 0-26.37 0q-4.85 6.84-4.85 19t4.85 19.47a15.14 15.14 0 0 0 13.19 7.15zm52.12-66.8h22.89a55.56 55.56 0 0 1 16.79 2.36A33.71 33.71 0 0 1 559 90.12a32 32 0 0 1 8.21 12.5 51.14 51.14 0 0 1 2.86 18 52.18 52.18 0 0 1-2.86 18.16 33.64 33.64 0 0 1-8.09 12.79 33.22 33.22 0 0 1-12.5 7.53 49.93 49.93 0 0 1-16.23 2.47h-23.91zm21.75 66.3a30.58 30.58 0 0 0 9.45-1.37 17.44 17.44 0 0 0 7.21-4.42 20.73 20.73 0 0 0 4.67-8 38.91 38.91 0 0 0 1.67-12.33 37.88 37.88 0 0 0-1.65-12.09 19.65 19.65 0 0 0-4.67-7.84 17 17 0 0 0-7.21-4.17 33.5 33.5 0 0 0-9.45-1.24h-3.48v51.5zm57.23-66.3h50.77V95.9h-32.48v16.3h27.62v15.3h-27.62v18.66h33.71v15.41h-52zm73.39 58.34a39.42 39.42 0 0 0 9.64 6.1 25.31 25.31 0 0 0 10.39 2.36q5.72 0 8.52-2.11a6.79 6.79 0 0 0 2.8-5.72 6.25 6.25 0 0 0-.81-3.23 7.75 7.75 0 0 0-2.36-2.43 22.36 22.36 0 0 0-3.73-2l-4.79-2.05-10.57-4.48a31.34 31.34 0 0 1-6-3.23 26.52 26.52 0 0 1-5.22-4.66 21 21 0 0 1-3.67-6.22 22.13 22.13 0 0 1-1.37-8 21.46 21.46 0 0 1 2.11-9.39 23.32 23.32 0 0 1 6-7.71 28.5 28.5 0 0 1 9.14-5.16A34.72 34.72 0 0 1 680.56 79a37.72 37.72 0 0 1 14 2.74 35.44 35.44 0 0 1 12.13 8l-9.33 11.57a35.4 35.4 0 0 0-8-4.79 22.52 22.52 0 0 0-8.83-1.68 13.06 13.06 0 0 0-7.53 1.95 6.2 6.2 0 0 0-2.8 5.41 5.31 5.31 0 0 0 .93 3.17 9.1 9.1 0 0 0 2.61 2.36 26.44 26.44 0 0 0 3.92 2l4.85 2.05L693 116a28.55 28.55 0 0 1 11.75 8.21Q709 129.44 709 138a23 23 0 0 1-8 17.6 29.73 29.73 0 0 1-9.64 5.47 38.16 38.16 0 0 1-12.94 2 45.43 45.43 0 0 1-15.86-2.92 41.35 41.35 0 0 1-14.12-8.77zm60.08-17.25a48.75 48.75 0 0 1 3.11-18 40.11 40.11 0 0 1 8.4-13.37 35.62 35.62 0 0 1 12.31-8.33A39 39 0 0 1 757.61 79a29.57 29.57 0 0 1 13.75 3.17 39.12 39.12 0 0 1 10.27 7.39l-10.08 11.32a28.49 28.49 0 0 0-6.28-4.48 16.11 16.11 0 0 0-7.4-1.62 17.67 17.67 0 0 0-7.9 1.8 19.05 19.05 0 0 0-6.41 5.16 24.83 24.83 0 0 0-4.29 8.21 35.75 35.75 0 0 0-1.55 10.95q0 12.57 5.35 19.47a17.17 17.17 0 0 0 14.3 6.9 18.24 18.24 0 0 0 8.71-2 25.28 25.28 0 0 0 6.72-5.22l10.08 11.07a32.78 32.78 0 0 1-25.75 11.94 41 41 0 0 1-14.8-2.67 34.54 34.54 0 0 1-12.19-7.9 36.68 36.68 0 0 1-8.21-13 49.94 49.94 0 0 1-3-17.92zm76.3-41.09h18.29v31.22h28V80.48h18.41v81.09h-18.47v-33.82h-28v33.82h-18.23zM912 163.08a37.48 37.48 0 0 1-15-2.92 32.54 32.54 0 0 1-11.63-8.4 38.55 38.55 0 0 1-7.53-13.31 54.88 54.88 0 0 1-2.67-17.79 54.33 54.33 0 0 1 2.67-17.73 36.67 36.67 0 0 1 7.53-13.06A32.3 32.3 0 0 1 897 81.78a41.53 41.53 0 0 1 30 0 32 32 0 0 1 11.63 8.15 37.35 37.35 0 0 1 7.53 13.12 54 54 0 0 1 2.67 17.6 54.93 54.93 0 0 1-2.67 17.79 38.58 38.58 0 0 1-7.53 13.31 32.56 32.56 0 0 1-11.63 8.4 37.49 37.49 0 0 1-15 2.93zm0-15.8a15.14 15.14 0 0 0 13.18-7.15Q930 133 930 120.66t-4.85-19a16.13 16.13 0 0 0-26.37 0q-4.85 6.84-4.85 19t4.85 19.47a15.14 15.14 0 0 0 13.22 7.15zm85.07 15.8a37.48 37.48 0 0 1-15-2.92 32.54 32.54 0 0 1-11.63-8.4 38.55 38.55 0 0 1-7.53-13.31 54.88 54.88 0 0 1-2.67-17.79 54.33 54.33 0 0 1 2.67-17.73 36.67 36.67 0 0 1 7.53-13.06 32.3 32.3 0 0 1 11.63-8.09 41.53 41.53 0 0 1 30 0 32 32 0 0 1 11.63 8.15 37.35 37.35 0 0 1 7.53 13.12 54 54 0 0 1 2.67 17.6 54.93 54.93 0 0 1-2.67 17.79 38.58 38.58 0 0 1-7.53 13.31 32.56 32.56 0 0 1-11.63 8.4 37.49 37.49 0 0 1-15 2.93zm0-15.8a15.14 15.14 0 0 0 13.18-7.15q4.85-7.15 4.85-19.47t-4.85-19a16.13 16.13 0 0 0-26.37 0q-4.85 6.84-4.85 19t4.85 19.47a15.14 15.14 0 0 0 13.19 7.15zm52.16-66.8h18.29v65.68h32.09v15.41h-50.38z"/><path class="cls-8" d="M339.7 188.1h18.73a41.54 41.54 0 0 1 8.79.86 20.56 20.56 0 0 1 6.82 2.69 12.87 12.87 0 0 1 4.42 4.75 14.65 14.65 0 0 1 1.58 7.06 14.36 14.36 0 0 1-2.69 8.5 13.94 13.94 0 0 1-8.26 5.23v.38q6.92 1.06 10.76 4.8t3.84 10.28a17.83 17.83 0 0 1-1.73 8.07 15.75 15.75 0 0 1-4.9 5.76 22.38 22.38 0 0 1-7.59 3.46 38.39 38.39 0 0 1-9.7 1.15H339.7zM357 215q8.16 0 11.67-2.79t3.51-8.07q0-5.19-3.7-7.44t-11.09-2.26h-9.7V215zm1.63 29.78q8.16 0 12.68-3t4.51-9.46q0-5.86-4.42-8.6T358.61 221h-11v23.79zm52.73-56.68h8v37.17a33.54 33.54 0 0 0 1.15 9.51 16.78 16.78 0 0 0 3.12 6.15 11.25 11.25 0 0 0 4.66 3.31 16.26 16.26 0 0 0 5.76 1 16.55 16.55 0 0 0 5.86-1 11.64 11.64 0 0 0 4.71-3.31 16.34 16.34 0 0 0 3.17-6.15 33.54 33.54 0 0 0 1.15-9.51V188.1h7.68v37a40.78 40.78 0 0 1-1.73 12.78 22.4 22.4 0 0 1-4.75 8.41 17.24 17.24 0 0 1-7.14 4.61 27.81 27.81 0 0 1-8.93 1.39 28.24 28.24 0 0 1-9-1.39 17.19 17.19 0 0 1-7.2-4.61 22.4 22.4 0 0 1-4.75-8.41 40.81 40.81 0 0 1-1.73-12.78zm77.7 0h36.31v6.72H497v19.75h24v6.82h-24v22.86h29.3v6.82h-37.24zm66.09 0h8.26l22.76 39.58 6.83 13.06h.38q-.29-4.8-.62-9.94t-.34-10.13V188.1H600v63h-8.26l-22.86-39.67-6.82-13h-.38q.38 4.8.72 9.75t.34 9.94v33h-7.59zM656 252.27a25.5 25.5 0 0 1-10.9-2.3 24.26 24.26 0 0 1-8.5-6.58 30.79 30.79 0 0 1-5.51-10.39 44.41 44.41 0 0 1-2-13.69 43.51 43.51 0 0 1 2-13.59 29.86 29.86 0 0 1 5.52-10.17 23.74 23.74 0 0 1 8.5-6.39A26.43 26.43 0 0 1 656 187a26 26 0 0 1 10.9 2.26 24.74 24.74 0 0 1 8.55 6.44 29.45 29.45 0 0 1 5.55 10.15 43.21 43.21 0 0 1 2 13.5 44.47 44.47 0 0 1-2 13.65 30.36 30.36 0 0 1-5.57 10.37 24.74 24.74 0 0 1-8.55 6.58 25.51 25.51 0 0 1-10.88 2.32zm0-7a15.92 15.92 0 0 0 7.64-1.83 17.15 17.15 0 0 0 5.86-5.24 26 26 0 0 0 3.8-8.2 39.36 39.36 0 0 0 1.34-10.71 38.45 38.45 0 0 0-1.34-10.57 24.29 24.29 0 0 0-3.79-8 16.73 16.73 0 0 0-27 0 24.25 24.25 0 0 0-3.79 8 38.41 38.41 0 0 0-1.34 10.57 39.32 39.32 0 0 0 1.35 10.71 26 26 0 0 0 3.79 8.16 17.14 17.14 0 0 0 5.86 5.24 15.91 15.91 0 0 0 7.63 1.81zm56.23-7.89a26.28 26.28 0 0 0 7.92 5.72 21.86 21.86 0 0 0 9.46 2.16q6.24 0 9.7-2.83a9.15 9.15 0 0 0 3.46-7.44 9.3 9.3 0 0 0-.82-4.08 8.93 8.93 0 0 0-2.21-2.88 16.1 16.1 0 0 0-3.31-2.16q-1.92-1-4.13-2l-9-3.94a42.68 42.68 0 0 1-4.57-2.36 18.54 18.54 0 0 1-4.13-3.27 15.6 15.6 0 0 1-3-4.56 16.06 16.06 0 0 1 .34-12.73 16.3 16.3 0 0 1 4.13-5.33 19.17 19.17 0 0 1 6.24-3.51 24.1 24.1 0 0 1 7.92-1.25 25.21 25.21 0 0 1 10.47 2.16 26.28 26.28 0 0 1 8.16 5.62l-4.32 5.19a22.47 22.47 0 0 0-6.31-4.32 19 19 0 0 0-7.92-1.58 13.67 13.67 0 0 0-8.5 2.45 8 8 0 0 0-3.22 6.77 7.68 7.68 0 0 0 .91 3.89 9.58 9.58 0 0 0 2.45 2.79 19.82 19.82 0 0 0 3.28 2.08q1.82.91 3.75 1.68l8.93 3.84a38.48 38.48 0 0 1 5.09 2.64 18.31 18.31 0 0 1 4.13 3.46 15.06 15.06 0 0 1 2.74 4.61 17 17 0 0 1 1 6.1 16.7 16.7 0 0 1-1.49 7 16.88 16.88 0 0 1-4.27 5.72 20.3 20.3 0 0 1-6.72 3.84 26.73 26.73 0 0 1-8.93 1.39 30.23 30.23 0 0 1-22.09-9.32zm130.22-5.48h-23l-6 19.21h-8.17l21.32-63h9l21.33 63h-8.55zm-2-6.44l-3-9.61q-1.72-5.28-3.22-10.51l-3.07-10.71h-.38q-1.44 5.48-3 10.71t-3.27 10.52l-3 9.61zm40.9-37.36h8v63h-8zm75.31 63.01l-15.18-26.61h-11.43v26.61h-8v-63h19.69a40.79 40.79 0 0 1 8.88.91 18.91 18.91 0 0 1 7 3 14.39 14.39 0 0 1 4.56 5.47 18.82 18.82 0 0 1 1.63 8.26q0 7.4-3.84 11.82a19.58 19.58 0 0 1-10.28 6l15.95 27.47zM930.05 218h10.57q7.4 0 11.33-3t3.94-9.17q0-6.24-3.94-8.74t-11.33-2.5h-10.57zm63.3-29.9h36.31v6.72h-28.33v19.75h23.9v6.82h-23.9v22.86h29.3v6.82h-37.27zm66.28 49.28a26.28 26.28 0 0 0 7.92 5.72 21.86 21.86 0 0 0 9.46 2.16q6.24 0 9.7-2.83a9.15 9.15 0 0 0 3.46-7.44 9.3 9.3 0 0 0-.82-4.08 8.93 8.93 0 0 0-2.21-2.88 16.1 16.1 0 0 0-3.31-2.16q-1.92-1-4.13-2l-9-3.94a42.68 42.68 0 0 1-4.51-2.31 18.54 18.54 0 0 1-4.13-3.27 15.6 15.6 0 0 1-3-4.56 16.06 16.06 0 0 1 .34-12.73 16.3 16.3 0 0 1 4.13-5.33 19.17 19.17 0 0 1 6.24-3.51 24.1 24.1 0 0 1 7.92-1.25 25.21 25.21 0 0 1 10.47 2.16 26.28 26.28 0 0 1 8.16 5.62l-4.32 5.19a22.47 22.47 0 0 0-6.39-4.37 19 19 0 0 0-7.92-1.58 13.67 13.67 0 0 0-8.5 2.45 8 8 0 0 0-3.22 6.77 7.68 7.68 0 0 0 .91 3.89 9.58 9.58 0 0 0 2.45 2.79 19.82 19.82 0 0 0 3.36 2.11q1.82.91 3.75 1.68l8.93 3.84a38.48 38.48 0 0 1 5.09 2.64 18.31 18.31 0 0 1 4.13 3.46 15.06 15.06 0 0 1 2.74 4.61 17 17 0 0 1 1 6.1 16.7 16.7 0 0 1-1.49 7 16.88 16.88 0 0 1-4.27 5.72 20.3 20.3 0 0 1-6.72 3.84 26.73 26.73 0 0 1-8.93 1.39 30.23 30.23 0 0 1-22.09-9.32z"/></svg>