<svg id="Layer_1" data-name="Layer 1" xmlns="http://www.w3.org/2000/svg" viewBox="0 0 460.64 529.34"><defs><style>.cls-1,.cls-5{fill:#a9d8f4}.cls-1,.cls-2,.cls-4,.cls-5,.cls-6,.cls-7{stroke:#5ab3e5}.cls-1,.cls-2,.cls-5,.cls-7{stroke-linecap:round}.cls-1,.cls-2,.cls-4,.cls-5,.cls-7{stroke-linejoin:round}.cls-1{stroke-width:16.74px}.cls-2,.cls-4,.cls-6{fill:none}.cls-2,.cls-4,.cls-5,.cls-6{stroke-width:5.81px}.cls-3{fill:#5ab3e5}.cls-6{stroke-miterlimit:10}.cls-7{fill:#feee0b;stroke-width:4.41px}</style></defs><title>nodeschoolba2</title><path class="cls-1" d="M452.27 392.77l-222 128.2-221.9-128.2v-256.3l221.9-128.1 222 128.1v256.3z"/><path class="cls-2" d="M162.6 296.7H74.4a7 7 0 0 0-7 7v67.2H111m226.4 0h60v-67.2a7 7 0 0 0-7-7h-90.9" transform="translate(-.03 -.03)"/><path class="cls-2" d="M263.37 370.87h48.8m-176.1 0h62.7"/><circle class="cls-2" cx="123.57" cy="369.67" r="12.6"/><circle class="cls-2" cx="324.87" cy="369.67" r="12.6"/><path class="cls-2" d="M77.47 313.87h21.9v57h-21.9zm100.5 17.6v39.4h17.6m153.5-57h21.9v57h-21.9zm-249.6 0h39.3v30.7h-39.3zm192.4 0h17.9v30.7h-31.6m31.6-30.7h39.3v30.7h-39.3z"/><path class="cls-2" d="M177.97 333.77v10.8h-39.3v-30.7h31.5m217.4 21.1l-16.5 9.6v-30.7h16.5v21.1z"/><path class="cls-3" d="M172.5 418.9a1.46 1.46 0 0 1 .5-2l4.1-2.4a4.53 4.53 0 0 1 3.6-.7 2.85 2.85 0 0 1 1.9 1.5 3 3 0 0 1-.1 3.4 3.18 3.18 0 0 1 3.8 1.6c1.2 2.1.1 4.2-2.5 5.7l-4.2 2.5a1.46 1.46 0 0 1-2-.5zm6.8.7c1.1-.7 1.6-1.4 1.1-2.3-.4-.8-1.3-.8-2.4-.2l-2.5 1.5 1.4 2.5zm3.4 4.2c1.1-.7 1.6-1.4 1.1-2.3-.4-.8-1.3-.9-2.6-.2l-3 1.7 1.5 2.6zm41.8-9.7v-6.3a1.5 1.5 0 1 1 3 0v6.2c0 2.2 1.1 3.3 2.9 3.3s2.9-1.1 2.9-3.2v-6.3a1.5 1.5 0 0 1 3 0v6.2c0 4.1-2.3 6.1-5.9 6.1s-5.9-2.1-5.9-6zm49.8 9l5.2-9.1a1.38 1.38 0 0 1 2-.5l6.4 3.7a1.44 1.44 0 0 1 .5 1.8 1.41 1.41 0 0 1-1.8.5l-5.2-3-1.4 2.4 4.4 2.6a1.32 1.32 0 0 1-1.3 2.3l-4.4-2.6-1.4 2.4 5.3 3a1.32 1.32 0 0 1-1.3 2.3l-6.5-3.8a1.38 1.38 0 0 1-.5-2zm47.9-328.8l-90.8-52.4a.37.37 0 0 0-.3-.1h-.8a.9.9 0 0 0-.5.1h-.2a.76.76 0 0 0-.4.2h-.1l-89.3 51.6a2.2 2.2 0 0 0 2.2 3.8l79.4-45.8-33.8 43.1a2.21 2.21 0 1 0 3.5 2.7l36.9-47v46a2.2 2.2 0 1 0 4.4 0v-46l36.9 47a2.09 2.09 0 0 0 1.7.9 2.39 2.39 0 0 0 1.4-.5 2.23 2.23 0 0 0 .4-3.1L239 51.7l81 46.5a2 2 0 0 0 1.1.3 2.14 2.14 0 0 0 1.9-1.1 2.26 2.26 0 0 0-.8-3.1zm-.7 338.4a2.17 2.17 0 0 0-3-.8l-79.4 45.8 33.7-43.1a2.21 2.21 0 0 0-3.5-2.7l-36.9 47v-46a2.2 2.2 0 1 0-4.4 0v46l-36.9-47a2.21 2.21 0 1 0-3.5 2.7l33.7 43.1-80.6-46.7a2.2 2.2 0 1 0-2.2 3.8l90.8 52.4h.1a.35.35 0 0 1 .2.1h.3c.2 0 .3.1.5.1a.75.75 0 0 0 .5-.1h.1a.1.1 0 0 0 .1-.1c.1 0 .2-.1.3-.1h.1l89.3-51.6a1.86 1.86 0 0 0 .7-2.8z" transform="translate(-.03 -.03)"/><circle class="cls-3" cx="327.47" cy="428.47" r="2.8"/><circle class="cls-3" cx="131.97" cy="428.47" r="2.8"/><path class="cls-3" d="M148.6 133.5a1.77 1.77 0 0 0 1.4-2c-.5-2.8-1.1-5.5-1.6-8.3 2.9 2.5 5.9 5.1 8.7 7.6a2.37 2.37 0 0 0 2 .7h.1a1.69 1.69 0 0 0 1.4-2c-.7-4.1-1.4-8.3-2.1-12.4a1.82 1.82 0 0 0-2.1-1.4 1.85 1.85 0 0 0-1.5 2c.5 2.7 1 5.4 1.4 8-2.8-2.5-5.6-4.9-8.5-7.4a2.24 2.24 0 0 0-2.1-.6c-.1 0-.2.1-.4.1a1.74 1.74 0 0 0-1.4 2.1c.9 4.1 1.7 8.2 2.6 12.3a1.8 1.8 0 0 0 2.1 1.3zm23.7-4c4.9-.7 8-4.8 7.4-9.2-.5-4.5-4.6-7.6-9.7-6.9s-8.2 5-7.4 9.4a8.37 8.37 0 0 0 9.7 6.7zm-6-7.4a4.75 4.75 0 0 1 4.1-5.6 4.92 4.92 0 0 1 5.6 4.3 4.79 4.79 0 0 1-4.1 5.5 5 5 0 0 1-5.6-4.2zm19.3 5.5c1.5-.2 3-.3 4.4-.5 5-.5 8.1-4.2 7.8-8.6-.3-4.4-4.2-7.6-9.4-7.1-1.5.2-3.1.3-4.6.5a1.77 1.77 0 0 0-1.6 1.9c.5 4.1.9 8.2 1.4 12.3a1.8 1.8 0 0 0 2 1.5zm.4-12.8l2.8-.3a4.55 4.55 0 0 1 5.3 4.3 4.63 4.63 0 0 1-4.4 5.2l-2.7.3c-.4-3.2-.7-6.4-1-9.5zm17.3 11.2c3-.2 5.9-.4 8.9-.5a1.5 1.5 0 0 0 1.5-1.6 1.56 1.56 0 0 0-1.6-1.5c-2.4.1-4.8.2-7.3.4-.1-1.1-.1-2.2-.2-3.3l6.2-.3a1.49 1.49 0 0 0 1.5-1.6 1.59 1.59 0 0 0-1.7-1.5l-6.2.3c-.1-1.1-.1-2.1-.2-3.2 2.4-.2 4.9-.3 7.3-.4a1.55 1.55 0 1 0-.1-3.1c-3.1.1-6.1.3-9.1.5a1.79 1.79 0 0 0-1.7 1.9l.9 12.3a1.58 1.58 0 0 0 1.8 1.6zm13.1-2.3a10.17 10.17 0 0 0 6 1.7c3.4-.1 5.8-1.8 5.8-5 0-2.8-1.9-3.9-5.2-4.7-2.8-.6-3.5-1-3.6-2 0-.8.7-1.4 2.1-1.4a6.94 6.94 0 0 1 3.5 1 1.49 1.49 0 0 0 .9.2 1.67 1.67 0 0 0 1.7-1.6 1.68 1.68 0 0 0-.8-1.4 9.1 9.1 0 0 0-5.3-1.3c-3.4.1-5.7 2.1-5.6 4.9.1 3.1 2.3 3.9 5.5 4.7 2.7.6 3.3 1.1 3.3 2 0 .9-.8 1.5-2.3 1.5a7.14 7.14 0 0 1-4.1-1.3 1.49 1.49 0 0 0-1-.3 1.67 1.67 0 0 0-1.6 1.7 1.71 1.71 0 0 0 .7 1.3zm22.4 1.7a8.47 8.47 0 0 0 5.7-1.8 1.63 1.63 0 0 0-1-2.9 1.5 1.5 0 0 0-1.1.4 5.13 5.13 0 0 1-3.5 1.2 4.81 4.81 0 0 1-4.6-5 4.76 4.76 0 0 1 4.8-4.9 5.55 5.55 0 0 1 3.3 1.2 1.82 1.82 0 0 0 1.1.4 1.69 1.69 0 0 0 1.8-1.6 1.75 1.75 0 0 0-.7-1.4 8.58 8.58 0 0 0-5.5-1.7 8.07 8.07 0 0 0-8.6 8.1 8.36 8.36 0 0 0 8.3 8zm11.1.2a1.71 1.71 0 0 0 1.8-1.7c.1-1.6.2-3.2.2-4.7 2.2.1 4.4.2 6.5.4-.1 1.6-.2 3.2-.3 4.7a1.78 1.78 0 0 0 1.6 1.9 1.71 1.71 0 0 0 1.9-1.6l.9-12.6a1.79 1.79 0 0 0-1.7-1.9 1.66 1.66 0 0 0-1.9 1.6c-.1 1.5-.2 3.1-.3 4.6-2.2-.1-4.4-.3-6.6-.4.1-1.6.2-3.1.2-4.7a1.71 1.71 0 0 0-1.7-1.8 1.86 1.86 0 0 0-1.9 1.7c-.2 4.2-.3 8.4-.5 12.6a1.88 1.88 0 0 0 1.8 1.9zm23.2 1.9a8.27 8.27 0 0 0 9.4-7.2c.6-4.5-2.6-8.5-7.7-9.1s-9.1 2.9-9.4 7.4a8.21 8.21 0 0 0 7.7 8.9zm-4-8.7a4.72 4.72 0 0 1 5.4-4.4 4.89 4.89 0 0 1 4.4 5.5 4.78 4.78 0 0 1-5.3 4.4 4.84 4.84 0 0 1-4.5-5.5zm23.2 11.1a8.42 8.42 0 0 0 9.8-6.7c.8-4.4-2.2-8.7-7.3-9.4s-9.2 2.4-9.8 6.9a8.19 8.19 0 0 0 7.3 9.2zm-3.6-8.8a4.85 4.85 0 0 1 5.6-4.2 4.77 4.77 0 0 1 4.1 5.7 4.91 4.91 0 0 1-9.7-1.5zm16.9 10.7c2.7.5 5.4 1 8.1 1.6a1.58 1.58 0 1 0 .6-3.1c-2.1-.4-4.3-.9-6.4-1.3.7-3.6 1.4-7.2 2-10.9a1.67 1.67 0 0 0-1.5-2 1.74 1.74 0 0 0-2.1 1.4c-.7 4.1-1.5 8.2-2.2 12.3a1.85 1.85 0 0 0 1.5 2z" transform="translate(-.03 -.03)"/><circle class="cls-3" cx="232.07" cy="274.87" r=".6"/><path class="cls-2" d="M341 220.9a355.77 355.77 0 0 0-219.8 0c-6.8-21.1-13.7-42.1-20.5-63.2a422.53 422.53 0 0 1 260.8 0c-6.9 21.1-13.7 42.1-20.5 63.2z" transform="translate(-.03 -.03)"/><path class="cls-4" d="M230.97 135.37v258.7m-18.8-256l14.5 254.4m-33.3-251.7l29 250m-47.9-247.3l43.6 245.7m-62.4-243.1l58 241.4m-76.9-238.7l72.6 237m-91.4-234.3l87.1 232.7m-106-230l101.6 228.3m30.3-247.1v258.7m18.9-256l-14.5 254.4m33.3-251.7l-29 250m47.9-247.3l-43.6 245.7m62.4-243.1l-58 241.4m76.9-238.7l-72.6 237m91.4-234.3l-87.1 232.7m106-230l-101.7 228.3"/><path class="cls-5" d="M230.97 163.17l-17.5 17.7-12.8 201.6 30.4 11.6 30.3-11.6-12.8-201.6-17.6-17.7z"/><path class="cls-2" d="M230.97 163.27v230.8"/><path class="cls-5" d="M129.8 223.1l-32.3 14.4c-2.4-.9-3.8-1.5-6.3-2.4l-29.8-67c.9-2.4 1.5-3.8 2.4-6.3l32.3-14.4z" transform="translate(-.03 -.03)"/><path class="cls-2" d="M79.8 232.2l8.5-3.8-23.9-53.7-8.5 3.8c-.7 1.9-1.1 3-1.9 4.9l20.9 46.9c1.9.8 3 1.2 4.9 1.9z" transform="translate(-.03 -.03)"/><path class="cls-6" d="M69.8 218.8A13 13 0 0 1 59.2 195" transform="translate(-.03 -.03)"/><circle class="cls-3" cx="78.27" cy="172.67" r="3.2"/><circle class="cls-3" cx="90.17" cy="167.37" r="3.2"/><circle class="cls-3" cx="83.47" cy="184.37" r="3.2"/><circle class="cls-3" cx="95.37" cy="179.07" r="3.2"/><circle class="cls-3" cx="88.67" cy="196.07" r="3.2"/><circle class="cls-3" cx="100.57" cy="190.77" r="3.2"/><circle class="cls-3" cx="93.87" cy="207.77" r="3.2"/><circle class="cls-3" cx="105.87" cy="202.47" r="3.2"/><circle class="cls-3" cx="99.07" cy="219.47" r="3.2"/><circle class="cls-3" cx="111.07" cy="214.17" r="3.2"/><path class="cls-5" d="M332.7 222.1l32.3 14.4c2.4-.9 3.8-1.5 6.3-2.4l29.8-67c-.9-2.4-1.5-3.8-2.4-6.3l-32.3-14.4z" transform="translate(-.03 -.03)"/><path class="cls-2" d="M382.8 231.1l-8.5-3.8 23.9-53.7 8.5 3.8c.7 1.9 1.1 3 1.9 4.9l-20.9 46.9c-2 .8-3 1.2-4.9 1.9z" transform="translate(-.03 -.03)"/><path class="cls-6" d="M392.8 217.7a13 13 0 1 0 10.6-23.8" transform="translate(-.03 -.03)"/><circle class="cls-3" cx="384.27" cy="171.57" r="3.2"/><circle class="cls-3" cx="372.27" cy="166.27" r="3.2"/><circle class="cls-3" cx="379.07" cy="183.27" r="3.2"/><circle class="cls-3" cx="367.07" cy="177.97" r="3.2"/><circle class="cls-3" cx="373.87" cy="194.97" r="3.2"/><circle class="cls-3" cx="361.87" cy="189.67" r="3.2"/><circle class="cls-3" cx="368.57" cy="206.67" r="3.2"/><circle class="cls-3" cx="356.67" cy="201.37" r="3.2"/><circle class="cls-3" cx="363.37" cy="218.37" r="3.2"/><circle class="cls-3" cx="351.47" cy="213.07" r="3.2"/><path class="cls-7" d="M244.27 285.37l-13.2 7.7-13.3-7.7v-15.3l13.3-7.6 13.2 7.6v15.3z"/><path class="cls-2" d="M200.67 382.47H53.97m357.1 0h-149.8"/><path class="cls-5" d="M101.2 272.2a10.54 10.54 0 1 0 0-14.9l-14.7 14.9a10.54 10.54 0 1 1 0-14.9m276 14.9a10.54 10.54 0 1 1 0-14.9l14.7 14.9a10.54 10.54 0 1 0 0-14.9" transform="translate(-.03 -.03)"/><path class="cls-2" d="M404.87 264.67h6.2m-359.7 0h6.6"/></svg>