<svg id="Layer_1" data-name="Layer 1" xmlns="http://www.w3.org/2000/svg" viewBox="0 0 388 80"><title>acamica</title><path d="M113,20.8a.2.2,0,0,0-.2-.2H112c-.2,0-.2,0-.2.2l-16.5,38V59l.2.2H103c.2,0,.2,0,.2-.2l1.7-4h14.8l1.8,4a.2.2,0,0,0,.2.2h8.2a.2.2,0,0,0,.2-.2h0v-.3Zm-5,27,2.5-6c.7-1.8,1.5-4.2,2-5.5.5,1.5,1.2,3.7,2,5.5l2.5,6Z"/><path d="M167.8,46.5h0c-.2,0-.5,0-.5.3-2.5,3.8-5.2,5.2-9.2,5.2-6.5,0-11-5-11-12s4.5-12,11-12a10,10,0,0,1,8.8,4.8l.1.2h.2l6-4.2c.2,0,.2-.2,0-.5-3.2-5.3-8.2-8-15.2-8-11.2,0-19.8,8.5-19.8,19.5a19.41,19.41,0,0,0,19,19.8H158c7,0,12.5-3,16-8.5v-.5Z"/><path d="M200.8,20.8a.2.2,0,0,0-.2-.2h-.8c-.2,0-.2,0-.2.2l-16.5,38V59l.2.2h7.5c.2,0,.2,0,.2-.2l1.8-4h14.8l1.8,4a.2.2,0,0,0,.2.2h8c.2,0,.2,0,.2-.2v-.3Zm3.7,27h-8.8l2.5-6c.8-1.8,1.5-4.2,2-5.5.5,1.5,1.2,3.7,2,5.5Z"/><path d="M266.8,20.5H266a.2.2,0,0,0-.2.2h0l-13,17.8c-.8,1.2-1.7,2.8-2.2,3.5a21.14,21.14,0,0,0-2.5-3.5l-13-18-.2-.3H234c-.2,0-.2.3-.2.3l-3,38v.2h7.4a.2.2,0,0,0,.2-.2h0l1-13.3c0-1.5.2-4,.2-5.5.8,1.2,2,3.2,3,4.8l6.8,9,.2.2h.8a.2.2,0,0,0,.2-.2h0l6.7-9a44,44,0,0,0,3-4.5c0,1.5.2,3.8.2,5.2l1,13.2a.2.2,0,0,0,.2.2h8v-.2l-2.9-37.9Z"/><path d="M293.8,20.8H286c-.2,0-.2.3-.2.3V58.6c0,.3.2.3.2.3h7.8c.2,0,.2-.3.2-.3V21a.2.2,0,0,0-.2-.2Z"/><path d="M338,46.5h-.2a.29.29,0,0,0-.3.28s0,0,0,0c-2.5,3.8-5.2,5.2-9.2,5.2-6.5,0-11-5-11-12s4.5-12,11-12a10,10,0,0,1,8.8,4.8l.2.2h.3l6-4.2c.3,0,.3-.2,0-.5-3.5-5.2-8.5-7.8-15.2-7.8-11.2,0-19.8,8.5-19.8,19.5a19.41,19.41,0,0,0,19,19.8h.79c7,0,12.5-3,16-8.5v-.5Z"/><path d="M388,58.5l-17.2-38a.29.29,0,0,0-.28-.3h-.82c-.2,0-.2,0-.2.3L353,58.5v.2l.3.3h7.5c.2,0,.2,0,.2-.3l1.8-4h14.7l1.8,4a.29.29,0,0,0,.28.3h8c.3,0,.3,0,.3-.3C388,58.8,388,58.8,388,58.5ZM374.5,47.8h-8.8l2.5-6c.8-1.8,1.5-4.2,2-5.5.5,1.5,1.2,3.7,2,5.5Z"/><path d="M40,7.8A32.2,32.2,0,1,1,7.8,40,32.2,32.2,0,0,1,40,7.8M40,0A40,40,0,1,0,80,40,40,40,0,0,0,40,0Z"/><circle cx="54" cy="40" r="6"/><circle cx="26" cy="40" r="6"/><path d="M40,29h0c-.2.2-.2.5-.5.8a17.92,17.92,0,0,0-3,7.7V39h0v.5h0l7.5-2,.5-.2a10.31,10.31,0,0,1,9.8-7.8V22A19.21,19.21,0,0,0,40,29Z"/><path d="M45.8,46A29.23,29.23,0,0,1,42,53a17,17,0,0,0,12,4.7V50.2A10.87,10.87,0,0,1,45.8,46Z"/><path d="M44,41v-.5h0l-7.5,2H36A10.22,10.22,0,0,1,26.2,50v7.5A17.23,17.23,0,0,0,40,50.7h0A17.16,17.16,0,0,0,44,41Z"/><path d="M34.5,34.2a21.35,21.35,0,0,1,3.8-7.3,17,17,0,0,0-12-4.7v7.5A12.51,12.51,0,0,1,34.5,34.2Z"/><path d="M40,41.5"/><path d="M39.5,38.8"/></svg>