<svg width="18" height="18" viewBox="0 0 18 18" version="1.1" xmlns="http://www.w3.org/2000/svg" xmlns:xlink="http://www.w3.org/1999/xlink">
<title>charlas</title>
<desc>Created using Figma</desc>
<g id="Canvas" transform="translate(-3659 -2691)">
<g id="charlas">
<g id="Megaphone">
<g id="Shape">
<use xlink:href="#path0_fill" transform="translate(3659.4 2691)" fill="#000000" fill-opacity="0.3"/>
</g>
</g>
</g>
</g>
<defs>
<path id="path0_fill" fill-rule="evenodd" d="M 15.8228 6.0299C 14.2388 2.3439 11.6908 -0.460097 10.4018 0.062903C 8.21281 0.953903 11.7058 5.2269 0.95481 9.5959C 0.0258101 9.9749 -0.20919 11.4839 0.17981 12.3879C 0.56781 13.2899 1.83781 14.1889 2.76681 13.8119C 2.92781 13.7459 3.51781 13.5559 3.51781 13.5559C 4.18081 14.4469 4.87481 13.9189 5.12181 14.4839C 5.41781 15.1639 6.06081 16.6419 6.27981 17.1439C 6.49881 17.6459 6.99481 18.1109 7.35481 17.9739C 7.71381 17.8369 8.93681 17.3719 9.40481 17.1949C 9.87281 17.0169 9.98381 16.5989 9.84081 16.2709C 9.68681 15.9159 9.05481 15.8119 8.87381 15.3979C 8.69381 14.9859 8.10481 13.6599 7.93581 13.2419C 7.70581 12.6739 8.19481 12.2109 8.90581 12.1379C 13.7998 11.6259 14.7148 14.6499 16.3808 13.9719C 17.6678 13.4469 17.4058 9.7129 15.8228 6.0299ZM 15.2718 12.0058C 14.9848 12.1208 13.0588 10.6038 11.8288 7.73884C 10.5978 4.87584 10.7528 2.25884 11.0388 2.14184C 11.3248 2.02684 13.2038 3.85884 14.4338 6.72184C 15.6648 9.58484 15.5578 11.8888 15.2718 12.0058Z"/>
</defs>
</svg>
