<svg width="16" height="16" viewBox="0 0 16 16" version="1.1" xmlns="http://www.w3.org/2000/svg" xmlns:xlink="http://www.w3.org/1999/xlink">
<title>code-of-conduct-icon</title>
<g id="Canvas" transform="translate(-3660 -2657)">
<g id="code-of-conduct">
<g id="Users">
<g id="Shape">
<use xlink:href="#path0_fill" transform="translate(3660 2657.08)" fill="#000000" fill-opacity="0.3"/>
</g>
</g>
</g>
</g>
<defs>
<path id="path0_fill" fill-rule="evenodd" d="M 12.7912 15.2188C 12.7912 13.422 11.0416 12.5076 9.3376 11.7732C 7.6392 11.042 7.0968 10.426 7.0968 9.10598C 7.0968 8.31478 7.6152 8.57238 7.8424 7.12118C 7.9384 6.51958 8.396 7.11158 8.484 5.73798C 8.484 5.19077 8.2336 5.05478 8.2336 5.05478C 8.2336 5.05478 8.3608 4.24438 8.4104 3.62038C 8.4616 2.96678 8.092 1.57238 6.5696 1.14438C 6.304 0.871575 6.124 0.438775 6.9432 0.0051752C 5.1512 -0.0780248 4.7344 0.859575 3.78 1.54918C 2.968 2.15398 2.7488 3.11158 2.788 3.62118C 2.84 4.24518 2.9664 5.05558 2.9664 5.05558C 2.9664 5.05558 2.7152 5.19158 2.7152 5.73878C 2.8032 7.11318 3.2624 6.52038 3.3576 7.12198C 3.5848 8.57318 4.104 8.31558 4.104 9.10678C 4.104 10.4268 3.9344 10.8748 2.2352 11.606C 0.5304 12.3396 0 13.5156 0.0088 15.2188C 0.0112 15.7284 0 15.9156 0 15.9156L 12.8 15.9156C 12.8 15.9156 12.7912 15.7284 12.7912 15.2188ZM 14.8225 10.6075C 13.9145 10.2419 13.5385 9.80595 13.5385 8.95475C 13.5385 8.44195 13.8729 8.60915 14.0201 7.67235C 14.0817 7.28515 14.3777 7.66595 14.4345 6.78035C 14.4345 6.42755 14.2729 6.33955 14.2729 6.33955C 14.2729 6.33955 14.3553 5.81475 14.3873 5.41235C 14.4273 4.91075 14.0961 3.61475 12.5729 3.61475C 11.0505 3.61475 10.7185 4.91075 10.7577 5.41235C 10.7913 5.81395 10.8729 6.33955 10.8729 6.33955C 10.8729 6.33955 10.7113 6.42675 10.7113 6.78035C 10.7681 7.66595 11.0641 7.28515 11.1257 7.67235C 11.2729 8.60995 11.6073 8.44275 11.6073 8.95475C 11.6073 9.80595 11.2569 10.2043 10.1601 10.6763C 10.1049 10.6995 10.0641 10.7307 10.0137 10.7579C 11.3257 11.3275 13.3945 12.3107 13.8841 14.3155L 16.0001 14.3155C 16.0001 14.3155 16.0001 12.7907 16.0001 12.4611C 16.0001 11.6611 15.7817 10.9939 14.8225 10.6075Z"/>
</defs>
</svg>
