<svg id="Layer_1" data-name="Layer 1" xmlns="http://www.w3.org/2000/svg" viewBox="0 0 238.1 101.84"><defs><style>.cls-1,.cls-2{fill:#fff;stroke:#000;stroke-width:2px;}.cls-1{stroke-linejoin:round;}.cls-3{fill:#c12c32;}</style></defs><title>ekospace</title><path class="cls-1" d="M237.08,8.18v57a6.76,6.76,0,0,1-1.69,5,6.54,6.54,0,0,1-4.82,2.1L174,72.49c-2,0-3.31-1.11-4.63-2.41a20.87,20.87,0,0,1-2-4.62c0-.23-.33-57.26-.33-57.26a7,7,0,0,1,2-5,5.92,5.92,0,0,1,4.48-2.08c3.91,0,6.53,3.18,6.53,7.11V57h44V16H196.58a7.44,7.44,0,0,1-5-2.42,7.71,7.71,0,0,1-2.07-5.26A7.28,7.28,0,0,1,196.58,1h34C234.47,1,237.08,4.26,237.08,8.18Z"/><path class="cls-2" d="M150.3,62.24l-13-13.07a3.67,3.67,0,0,0-5.19,0h0L127.25,54a3.7,3.7,0,0,0,0,5.22l13,13.07a3.67,3.67,0,0,0,5.19,0h0l4.83-4.85A3.7,3.7,0,0,0,150.3,62.24Z"/><path class="cls-2" d="M149.18,13.56,104.87,70.22c-2.11,2.68-8.81,2-8.48,2a6.94,6.94,0,0,1-6.31-7.09v-57a7,7,0,0,1,1.86-5,6,6,0,0,1,4.54-2.08c3.91,0,6.6,3.18,6.6,7.11V48L137.39,4.6a7.32,7.32,0,0,1,10.16-1.2l.33.17A7.16,7.16,0,0,1,149.18,13.56Z"/><rect class="cls-2" x="1" y="58.88" width="70.93" height="14.24" rx="3.67" ry="3.67"/><rect class="cls-2" x="1" y="30.84" width="70.93" height="14.24" rx="3.67" ry="3.67"/><rect class="cls-2" x="1" y="2.79" width="70.93" height="14.24" rx="3.67" ry="3.67"/><path class="cls-3" d="M16.56,101.6H14.63V93.77H5.9v7.83H4V85H5.9v7h8.73V85h1.93Z"/><path class="cls-3" d="M39.32,101.6l-2.06-5.29H30.62l-2,5.29h-2l6.55-16.7h1.62l6.52,16.7h-2Zm-2.66-7-1.93-5.15q-.37-1-.77-2.4a21.65,21.65,0,0,1-.71,2.4l-2,5.15Z"/><path class="cls-3" d="M58.5,86.46a5.41,5.41,0,0,0-4.31,1.83,7.38,7.38,0,0,0-1.58,5,7.53,7.53,0,0,0,1.53,5,5.41,5.41,0,0,0,4.35,1.78,14.81,14.81,0,0,0,4-.63v1.7a12.14,12.14,0,0,1-4.25.65,7.18,7.18,0,0,1-5.65-2.23,9.2,9.2,0,0,1-2-6.34,10,10,0,0,1,1-4.51,6.89,6.89,0,0,1,2.77-3,8.35,8.35,0,0,1,4.26-1,10.23,10.23,0,0,1,4.56,1l-.82,1.66A8.76,8.76,0,0,0,58.5,86.46Z"/><path class="cls-3" d="M85.82,101.6H83.55l-6-8.07-1.73,1.55v6.52H73.89V85h1.93v8.25L83.34,85h2.28l-6.67,7.22Z"/><path class="cls-3" d="M105.14,101.6H95.9V85h9.24v1.72H97.83V92h6.87v1.71H97.83v6.12h7.31v1.77Z"/><path class="cls-3" d="M118.55,94.69v6.92h-1.93V85h4.55a7.14,7.14,0,0,1,4.51,1.17,4.25,4.25,0,0,1,1.46,3.53,4.42,4.42,0,0,1-3.33,4.46l4.5,7.48H126l-4-6.92h-3.46Zm0-1.66h2.64a4.55,4.55,0,0,0,3-.81,3,3,0,0,0,1-2.44,2.78,2.78,0,0,0-1-2.38,5.24,5.24,0,0,0-3.11-.73h-2.51V93Z"/><path class="cls-3" d="M148.08,97.18a4.09,4.09,0,0,1-1.59,3.42,6.86,6.86,0,0,1-4.31,1.23,10.74,10.74,0,0,1-4.54-.76V99.2a11.92,11.92,0,0,0,2.22.68,11.64,11.64,0,0,0,2.38.25,4.79,4.79,0,0,0,2.9-.73,2.41,2.41,0,0,0,1-2,2.63,2.63,0,0,0-.35-1.42,3.22,3.22,0,0,0-1.16-1,16.16,16.16,0,0,0-2.47-1.06,7.86,7.86,0,0,1-3.3-2,4.36,4.36,0,0,1-1-3,3.7,3.7,0,0,1,1.44-3.06,6,6,0,0,1,3.81-1.14,11.2,11.2,0,0,1,4.55.91l-.6,1.68a10.25,10.25,0,0,0-4-.86,3.85,3.85,0,0,0-2.39.66,2.18,2.18,0,0,0-.86,1.83,2.81,2.81,0,0,0,.32,1.42,3,3,0,0,0,1.07,1,13.35,13.35,0,0,0,2.31,1,9.12,9.12,0,0,1,3.59,2A4,4,0,0,1,148.08,97.18Z"/><path class="cls-3" d="M169.83,89.82a4.67,4.67,0,0,1-1.75,3.88,7.76,7.76,0,0,1-4.92,1.36h-2v6.54h-1.93V85h4.3Q169.83,85,169.83,89.82Zm-8.58,3.58H163a6.43,6.43,0,0,0,3.71-.83,3.06,3.06,0,0,0,1.15-2.66,2.87,2.87,0,0,0-1.08-2.46,5.61,5.61,0,0,0-3.36-.81h-2.15V93.4Z"/><path class="cls-3" d="M191.52,101.6l-2.06-5.29h-6.64l-2,5.29h-2l6.55-16.7H187l6.52,16.7h-2Zm-2.66-7-1.93-5.15q-.37-1-.77-2.4a21.87,21.87,0,0,1-.71,2.4l-2,5.15h5.41Z"/><path class="cls-3" d="M210.69,86.46a5.41,5.41,0,0,0-4.31,1.83,7.38,7.38,0,0,0-1.58,5,7.53,7.53,0,0,0,1.53,5,5.41,5.41,0,0,0,4.35,1.78,14.81,14.81,0,0,0,4-.63v1.7a12.14,12.14,0,0,1-4.25.65,7.18,7.18,0,0,1-5.65-2.23,9.2,9.2,0,0,1-2-6.34,10,10,0,0,1,1-4.51,6.89,6.89,0,0,1,2.77-3,8.35,8.35,0,0,1,4.26-1,10.24,10.24,0,0,1,4.56,1l-.82,1.66A8.76,8.76,0,0,0,210.69,86.46Z"/><path class="cls-3" d="M235.29,101.6h-9.21V85h9.24v1.72H228V92h6.87v1.71H228v6.12h7.31v1.73Z"/></svg>