<svg width="18" height="17" viewBox="0 0 18 17" version="1.1" xmlns="http://www.w3.org/2000/svg" xmlns:xlink="http://www.w3.org/1999/xlink">
<title>faq-icon</title>
<g id="Canvas" transform="translate(-3658 -2587)">
<g id="faq-icon">
<g id="Chat">
<g id="Shape">
<use xlink:href="#path0_fill" transform="translate(3658 2587)" fill="#000000" fill-opacity="0.3"/>
</g>
</g>
</g>
</g>
<defs>
<path id="path0_fill" fill-rule="evenodd" d="M 5.22 10.08L 5.22 4.5L 1.8 4.5C 0.81 4.5 0 5.31 0 6.3L 0 11.7C 0 12.69 0.81 13.5 1.8 13.5L 2.7 13.5L 2.7 16.2L 5.4 13.5L 9.9 13.5C 10.89 13.5 11.7 12.69 11.7 11.7L 11.7 10.062C 11.6424 10.0746 11.5812 10.0809 11.52 10.0809L 5.22 10.0809L 5.22 10.08ZM 16.2 0L 8.10005 0C 7.11005 0 6.30005 0.81 6.30005 1.8L 6.30005 9L 12.6 9L 15.3 11.7L 15.3 9L 16.2 9C 17.19 9 18 8.1909 18 7.2L 18 1.8C 18 0.81 17.19 0 16.2 0Z"/>
</defs>
</svg>
