<?xml version="1.0" encoding="UTF-8" standalone="no"?>
<!-- Generator: Adobe Illustrator 17.0.0, SVG Export Plug-In . SVG Version: 6.00 Build 0)  -->

<svg
   xmlns:dc="http://purl.org/dc/elements/1.1/"
   xmlns:cc="http://creativecommons.org/ns#"
   xmlns:rdf="http://www.w3.org/1999/02/22-rdf-syntax-ns#"
   xmlns:svg="http://www.w3.org/2000/svg"
   xmlns="http://www.w3.org/2000/svg"
   xmlns:sodipodi="http://sodipodi.sourceforge.net/DTD/sodipodi-0.dtd"
   xmlns:inkscape="http://www.inkscape.org/namespaces/inkscape"
   version="1.1"
   id="Capa_1"
   x="0px"
   y="0px"
   width="18"
   height="18.299999"
   viewBox="0 0 17.999999 18.299999"
   enable-background="new 0 0 1190.55 841.89"
   xml:space="preserve"
   inkscape:version="0.91 r13725"
   sodipodi:docname="feedback.svg"><metadata
     id="metadata11"><rdf:RDF><cc:Work
         rdf:about=""><dc:format>image/svg+xml</dc:format><dc:type
           rdf:resource="http://purl.org/dc/dcmitype/StillImage" /><dc:title /></cc:Work></rdf:RDF></metadata><defs
     id="defs9"><path
       d="M 0.510103,1.14311 C 0.943881,1.376 6.95277,4.60444 7.17677,4.72444 c 0.224,0.12 0.51378,0.17689 0.80533,0.17689 0.29156,0 0.58134,-0.05689 0.80534,-0.17689 C 9.01144,4.60444 15.0203,1.376 15.4541,1.14311 15.8888,0.909333 16.2994,0 15.5021,0 L 0.462992,0 C -0.334342,0 0.0763251,0.909333 0.510103,1.14311 Z M 15.656,3.10137 C 15.1627,3.35826 9.08978,6.5227 8.78756,6.68093 8.48533,6.83915 8.27378,6.85782 7.98222,6.85782 7.69067,6.85782 7.47911,6.83915 7.17689,6.68093 6.87467,6.5227 0.836445,3.35737 0.343112,3.10048 -0.00355482,2.91915 7.29214e-7,3.13159 7.29214e-7,3.29515 c 0,0.16355 0,6.48266 0,6.48266 C 7.29214e-7,10.1511 0.503112,10.6667 0.88889,10.6667 l 14.22221,0 c 0.3858,0 0.8889,-0.5156 0.8889,-0.88889 0,0 0,-6.31822 0,-6.48177 0,-0.16356 0.0036,-0.376 -0.344,-0.19467 z"
       id="path0_fill"
       inkscape:connector-curvature="0"
       style="fill-rule:evenodd" /></defs><sodipodi:namedview
     pagecolor="#ffffff"
     bordercolor="#666666"
     borderopacity="1"
     objecttolerance="10"
     gridtolerance="10"
     guidetolerance="10"
     inkscape:pageopacity="0"
     inkscape:pageshadow="2"
     inkscape:window-width="1920"
     inkscape:window-height="1017"
     id="namedview7"
     showgrid="false"
     inkscape:zoom="1.9957163"
     inkscape:cx="366.35574"
     inkscape:cy="126.34589"
     inkscape:window-x="0"
     inkscape:window-y="30"
     inkscape:window-maximized="1"
     inkscape:current-layer="Capa_1" /><g
     id="g4139"
     transform="matrix(0.02568972,0,0,0.02568972,-7.819824,-1.885803)"
     style="fill:#000000;fill-opacity:0.29803922"><path
       id="path3"
       d="m 822.628,520.473 c 0,3.304 0,4.889 0,6.473 10e-4,68.821 0.063,137.643 -0.03,206.464 -0.036,26.8 -16.198,46.284 -42.426,51.508 -2.917,0.581 -5.978,0.607 -8.973,0.607 -138.569,0.028 -277.139,0.028 -415.708,0.021 -28,-0.001 -49.244,-20.132 -50.943,-48.254 -0.126,-2.079 -0.107,-4.169 -0.107,-6.254 -0.004,-201.598 0.024,-403.195 -0.046,-604.793 -0.007,-19.733 8.038,-34.868 24.583,-45.401 9.088,-5.785 19.335,-7.194 29.95,-7.19 120.263,0.052 240.527,0.032 360.79,0.034 17.611,0 35.225,-0.215 52.831,0.074 25.681,0.422 45.877,18.54 49.141,44.002 0.288,2.245 -0.784,5.445 -2.384,7.037 -30.54,30.393 -61.262,60.603 -91.927,90.871 -8.244,8.137 -16.221,16.563 -24.775,24.358 -2.186,1.992 -6.101,2.925 -9.224,2.93 -93.615,0.15 -187.231,0.111 -280.846,0.16 -3.907,0.002 -7.979,-0.05 -11.688,0.968 -10.278,2.82 -16.635,12.355 -16.071,23.171 0.544,10.434 7.704,18.971 18.017,21.004 3.371,0.664 6.907,0.668 10.368,0.67 77.163,0.035 154.326,0.027 231.49,0.027 2.514,0 5.027,0 8.817,0 -1.985,2.336 -3.125,3.884 -4.468,5.229 -19.804,19.848 -39.518,39.789 -59.604,59.348 -2.596,2.528 -7.147,4.283 -10.802,4.301 -55.148,0.269 -110.298,0.159 -165.448,0.241 -4.362,0.006 -8.923,0.1 -13.046,1.321 -10.296,3.05 -16.477,13.421 -15.247,24.401 1.18,10.536 9.387,18.667 20.113,19.761 2.987,0.305 6.014,0.313 9.022,0.314 38.697,0.019 77.395,0.013 116.092,0.013 2.459,0 4.917,0 7.376,0 0.415,0.539 0.831,1.078 1.246,1.616 -22.526,16.699 -33.179,39.622 -35.623,67.215 -3.291,0 -5.782,-0.001 -8.273,0 -29.197,0.009 -58.394,-0.107 -87.59,0.088 -11.772,0.078 -21.12,8.677 -22.378,19.779 -1.341,11.843 5.654,22.424 17.011,25.273 2.867,0.719 5.964,0.706 8.956,0.713 24.331,0.052 48.661,0.03 72.992,0.03 2.524,0 5.049,0 8.643,0 -5.035,23.348 -9.928,46.036 -14.943,69.29 -16.208,0 -32.16,-0.005 -48.111,0.002 -7.415,0.003 -14.834,-0.127 -22.244,0.076 -12.656,0.347 -22.113,9.676 -22.406,21.847 -0.309,12.804 8.451,22.891 21.318,23.726 8.539,0.554 17.139,0.21 25.711,0.22 16.916,0.02 33.835,-0.168 50.743,0.185 2.692,0.056 6.185,1.805 7.868,3.918 18.565,23.297 42.381,32.093 71.421,26.008 42.345,-8.872 84.636,-18.006 126.903,-27.242 15.009,-3.279 27.921,-10.323 38.888,-21.499 29.856,-30.424 60.136,-60.431 90.264,-90.587 1.087,-1.089 2.342,-2.008 4.777,-4.074 z"
       inkscape:connector-curvature="0"
       style="fill:#000000;fill-opacity:0.29803922" /><path
       id="path5"
       d="m 914.161,138.38 c 33.278,1.562 62.426,18.37 79.665,52.534 17.209,34.106 14.737,68.278 -7.986,98.928 -12.027,16.223 -27.789,29.723 -42.175,44.144 -81.461,81.66 -163.074,163.17 -244.441,244.924 -7.321,7.356 -15.245,12.117 -25.457,14.226 -40.984,8.464 -81.849,17.502 -122.809,26.084 -16.97,3.556 -30.831,-9.673 -27.344,-26.688 8.264,-40.323 17.518,-80.445 25.675,-120.789 2.508,-12.404 8.127,-21.964 17.031,-30.801 80.224,-79.615 160.137,-159.543 240.219,-239.301 15.084,-15.023 29.787,-30.554 45.987,-44.294 16.021,-13.589 35.788,-18.884 61.635,-18.967 z M 654.735,550.107 c -20.702,-20.904 -41.209,-41.611 -61.79,-62.393 -5.587,25.828 -11.281,52.152 -17.197,79.502 27.441,-5.945 53.71,-11.634 78.987,-17.109 z"
       inkscape:connector-curvature="0"
       style="fill:#000000;fill-opacity:0.29803922" /></g></svg>