<svg width="18" height="18" viewBox="0 0 18 18" version="1.1" xmlns="http://www.w3.org/2000/svg" xmlns:xlink="http://www.w3.org/1999/xlink">
<title>github-logo</title>
<g id="Canvas" transform="translate(-3325 -2731)">
<g id="github-logo">
<g id="Capa_1">
<g id="Shape">
<use xlink:href="#path0_fill" transform="translate(3325 2731.01)"/>
</g>
</g>
</g>
</g>
<defs>
<path id="path0_fill" fill-rule="evenodd" d="M 16.7753 4.47778C 15.9714 3.10026 14.8808 2.00969 13.5034 1.20579C 12.1258 0.401863 10.6219 0 8.99061 0C 7.3595 0 5.85508 0.401986 4.47778 1.20579C 3.10026 2.00964 2.00977 3.10026 1.20579 4.47778C 0.401945 5.85525 0 7.35946 0 8.99036C 0 10.9495 0.571572 12.7111 1.715 14.2758C 2.85831 15.8406 4.33529 16.9234 6.14583 17.5243C 6.35658 17.5634 6.5126 17.5359 6.61404 17.4425C 6.71552 17.3489 6.7662 17.2317 6.7662 17.0914C 6.7662 17.068 6.76419 16.8573 6.76029 16.4593C 6.75627 16.0612 6.75439 15.7139 6.75439 15.4176L 6.48513 15.4641C 6.31345 15.4956 6.09687 15.5089 5.8354 15.5051C 5.57405 15.5015 5.30274 15.4741 5.02184 15.4232C 4.74081 15.3727 4.47942 15.2556 4.23746 15.0722C 3.99563 14.8888 3.82395 14.6488 3.72247 14.3524L 3.60541 14.083C 3.52738 13.9037 3.40454 13.7044 3.23672 13.4861C 3.0689 13.2675 2.89919 13.1193 2.72751 13.0413L 2.64555 12.9826C 2.59093 12.9436 2.54026 12.8966 2.49339 12.842C 2.44656 12.7874 2.41151 12.7328 2.3881 12.6781C 2.36464 12.6234 2.38408 12.5785 2.44661 12.5433C 2.50913 12.508 2.62214 12.4909 2.7861 12.4909L 3.02015 12.5259C 3.17624 12.5572 3.36932 12.6506 3.59963 12.8068C 3.82982 12.9629 4.01904 13.1657 4.16735 13.4154C 4.34694 13.7354 4.56331 13.9793 4.81707 14.1471C 5.07063 14.315 5.32628 14.3987 5.58377 14.3987C 5.84127 14.3987 6.06366 14.3792 6.25104 14.3404C 6.43822 14.3013 6.61383 14.2427 6.7778 14.1647C 6.84804 13.6416 7.03927 13.2397 7.35134 12.9588C 6.90655 12.9121 6.50665 12.8417 6.15145 12.7481C 5.79645 12.6543 5.4296 12.5022 5.05115 12.2913C 4.6725 12.0807 4.35838 11.8191 4.10872 11.5071C 3.85901 11.1949 3.65408 10.785 3.49421 10.2779C 3.33426 9.77051 3.25427 9.18525 3.25427 8.52191C 3.25427 7.57743 3.56261 6.7737 4.17916 6.11028C 3.89034 5.40021 3.9176 4.60419 4.26104 3.72231C 4.48737 3.65199 4.82302 3.70476 5.26781 3.88029C 5.71268 4.0559 6.03841 4.20634 6.2453 4.33107C 6.4522 4.45576 6.61797 4.56142 6.74287 4.64712C 7.46881 4.44428 8.21796 4.34284 8.99053 4.34284C 9.76309 4.34284 10.5124 4.44428 11.2384 4.64712L 11.6832 4.36629C 11.9874 4.17891 12.3466 4.00719 12.76 3.8511C 13.1737 3.69508 13.49 3.65211 13.7086 3.72243C 14.0596 4.60435 14.0909 5.40033 13.802 6.11041C 14.4185 6.77382 14.727 7.57775 14.727 8.52204C 14.727 9.18537 14.6467 9.77248 14.487 10.2837C 14.3271 10.7951 14.1204 11.2045 13.8668 11.5129C 13.613 11.8213 13.2969 12.0808 12.9184 12.2914C 12.5399 12.5022 12.1729 12.6543 11.8179 12.748C 11.4628 12.8417 11.0629 12.9122 10.6181 12.959C 11.0237 13.3101 11.2266 13.8642 11.2266 14.6212L 11.2266 17.0911C 11.2266 17.2314 11.2754 17.3485 11.3731 17.4421C 11.4706 17.5356 11.6247 17.5631 11.8354 17.5239C 13.6462 16.9231 15.1232 15.8403 16.2665 14.2755C 17.4096 12.7108 17.9814 10.9491 17.9814 8.99004C 17.981 7.35933 17.5788 5.85525 16.7753 4.47778Z"/>
</defs>
</svg>
