<svg width="20" height="20" viewBox="0 0 20 20" version="1.1" xmlns="http://www.w3.org/2000/svg" xmlns:xlink="http://www.w3.org/1999/xlink">
<title>instagram-logo</title>
<g id="Canvas" transform="translate(33 41)">
<g id="instagram">
<path d="M -33 -41L -13 -41L -13 -21L -33 -21L -33 -41Z" fill="#F2F2F2"/>
<g id="Vector">
<use xlink:href="#path0_fill" transform="translate(-33 -41)" fill="url(#paint0_radial)"/>
</g>
<g id="Vector">
<use xlink:href="#path0_fill" transform="translate(-33 -41)" fill="url(#paint1_radial)"/>
</g>
</g>
</g>
<defs>
<radialGradient id="paint0_radial" cx="0.5" cy="0.5" r="0.5" gradientUnits="userSpaceOnUse" gradientTransform="matrix(52.2187 0 0 52.2166 -23.4521 -6.01384)">
<stop offset="0.09" stop-color="#FA8F21"/>
<stop offset="0.78" stop-color="#D82D7E"/>
</radialGradient>
<radialGradient id="paint1_radial" cx="0.5" cy="0.5" r="0.5" gradientUnits="userSpaceOnUse" gradientTransform="matrix(41.1556 0 0 41.1539 -8.44818 0.41352)">
<stop offset="0.64" stop-color="#8C3AAA" stop-opacity="0"/>
<stop offset="1" stop-color="#8C3AAA"/>
</radialGradient>
<path id="path0_fill" d="M 6.66747 10C 6.66747 8.15912 8.15945 6.6664 10.0004 6.6664C 11.8414 6.6664 13.3341 8.15912 13.3341 10C 13.3341 11.8409 11.8414 13.3336 10.0004 13.3336C 8.15945 13.3336 6.66747 11.8409 6.66747 10ZM 4.86532 10C 4.86532 12.836 7.16429 15.1349 10.0004 15.1349C 12.8365 15.1349 15.1355 12.836 15.1355 10C 15.1355 7.164 12.8365 4.86512 10.0004 4.86512C 7.16429 4.86512 4.86532 7.164 4.86532 10ZM 14.1387 4.66152C 14.1386 4.89886 14.2089 5.13089 14.3407 5.32829C 14.4725 5.52568 14.6598 5.67956 14.8791 5.77047C 15.0983 5.86138 15.3396 5.88525 15.5724 5.83904C 15.8052 5.79283 16.0191 5.67862 16.187 5.51087C 16.3549 5.34311 16.4693 5.12934 16.5157 4.89658C 16.5621 4.66382 16.5384 4.42253 16.4477 4.20322C 16.3569 3.98392 16.2032 3.79644 16.0059 3.6645C 15.8086 3.53257 15.5766 3.4621 15.3393 3.462L 15.3388 3.462C 15.0206 3.46215 14.7156 3.58856 14.4905 3.81347C 14.2655 4.03837 14.139 4.34339 14.1387 4.66152L 14.1387 4.66152ZM 5.96024 18.1398C 4.98524 18.0954 4.4553 17.933 4.10312 17.7958C 3.63623 17.614 3.30309 17.3975 2.95284 17.0478C 2.60258 16.698 2.38578 16.3652 2.20481 15.8983C 2.06752 15.5463 1.90512 15.0162 1.86079 14.0413C 1.81231 12.9872 1.80263 12.6706 1.80263 10.0001C 1.80263 7.3296 1.81311 7.01384 1.86079 5.95888C 1.9052 4.98392 2.0688 4.45488 2.20481 4.10184C 2.38658 3.63496 2.60306 3.30184 2.95284 2.9516C 3.30261 2.60136 3.63543 2.38456 4.10312 2.2036C 4.45514 2.06632 4.98524 1.90392 5.96024 1.8596C 7.01436 1.81112 7.33101 1.80144 10.0004 1.80144C 12.6698 1.80144 12.9868 1.81192 14.0418 1.8596C 15.0168 1.904 15.5458 2.0676 15.8989 2.2036C 16.3658 2.38456 16.6989 2.60184 17.0492 2.9516C 17.3994 3.30136 17.6154 3.63496 17.7972 4.10184C 17.9345 4.45384 18.0969 4.98392 18.1412 5.95888C 18.1897 7.01384 18.1994 7.3296 18.1994 10.0001C 18.1994 12.6706 18.1897 12.9863 18.1412 14.0413C 18.0968 15.0162 17.9336 15.5462 17.7972 15.8983C 17.6154 16.3652 17.3989 16.6983 17.0492 17.0478C 16.6994 17.3972 16.3658 17.614 15.8989 17.7958C 15.5469 17.933 15.0168 18.0954 14.0418 18.1398C 12.9876 18.1882 12.671 18.1979 10.0004 18.1979C 7.32981 18.1979 7.01404 18.1882 5.96024 18.1398L 5.96024 18.1398ZM 5.87744 0.06056C 4.81283 0.10904 4.08536 0.27784 3.45006 0.52504C 2.79211 0.78032 2.23513 1.1228 1.67855 1.67848C 1.12196 2.23416 0.780351 2.792 0.525061 3.44992C 0.277851 4.0856 0.109044 4.81264 0.0605624 5.8772C 0.0112805 6.94344 0 7.28432 0 10C 0 12.7157 0.0112805 13.0566 0.0605624 14.1228C 0.109044 15.1874 0.277851 15.9144 0.525061 16.5501C 0.780351 17.2076 1.12204 17.7661 1.67855 18.3215C 2.23505 18.877 2.79211 19.219 3.45006 19.475C 4.08656 19.7222 4.81283 19.891 5.87744 19.9394C 6.94428 19.9879 7.28461 20 10.0004 20C 12.7162 20 13.0571 19.9887 14.1234 19.9394C 15.188 19.891 15.915 19.7222 16.5507 19.475C 17.2083 19.219 17.7657 18.8772 18.3223 18.3215C 18.8788 17.7658 19.2197 17.2076 19.4757 16.5501C 19.723 15.9144 19.8926 15.1874 19.9402 14.1228C 19.9887 13.0558 20 12.7157 20 10C 20 7.28432 19.9887 6.94344 19.9402 5.8772C 19.8918 4.81256 19.723 4.0852 19.4757 3.44992C 19.2197 2.7924 18.878 2.23504 18.3223 1.67848C 17.7666 1.12192 17.2083 0.78032 16.5515 0.52504C 15.915 0.27784 15.188 0.10824 14.1242 0.06056C 13.0579 0.01208 12.717 0 10.0012 0C 7.28541 0 6.94428 0.01128 5.87744 0.06056Z"/>
</defs>
</svg>
