<?xml version="1.0" encoding="UTF-8" standalone="no"?>
<svg
   xmlns:dc="http://purl.org/dc/elements/1.1/"
   xmlns:cc="http://creativecommons.org/ns#"
   xmlns:rdf="http://www.w3.org/1999/02/22-rdf-syntax-ns#"
   xmlns:svg="http://www.w3.org/2000/svg"
   xmlns="http://www.w3.org/2000/svg"
   xmlns:sodipodi="http://sodipodi.sourceforge.net/DTD/sodipodi-0.dtd"
   xmlns:inkscape="http://www.inkscape.org/namespaces/inkscape"
   width="18px"
   height="18px"
   viewBox="0 0 195 195"
   version="1.1"
   id="svg2"
   inkscape:version="0.91 r13725"
   sodipodi:docname="medium.svg">
  <metadata
     id="metadata16">
    <rdf:RDF>
      <cc:Work
         rdf:about="">
        <dc:format>image/svg+xml</dc:format>
        <dc:type
           rdf:resource="http://purl.org/dc/dcmitype/StillImage" />
      </cc:Work>
    </rdf:RDF>
  </metadata>
  <sodipodi:namedview
     pagecolor="#ffffff"
     bordercolor="#666666"
     borderopacity="1"
     objecttolerance="10"
     gridtolerance="10"
     guidetolerance="10"
     inkscape:pageopacity="0"
     inkscape:pageshadow="2"
     inkscape:window-width="1920"
     inkscape:window-height="1017"
     id="namedview14"
     showgrid="false"
     inkscape:zoom="13.692488"
     inkscape:cx="5.5474166"
     inkscape:cy="-8.5131942"
     inkscape:window-x="0"
     inkscape:window-y="30"
     inkscape:window-maximized="1"
     inkscape:current-layer="svg2" />
  <!-- Generator: Sketch 46.2 (44496) - http://www.bohemiancoding.com/sketch -->
  <title
     id="title4">Monogram</title>
  <desc
     id="desc6">Created with Sketch.</desc>
  <defs
     id="defs8" />
  <g
     id="Page-1"
     transform="translate(0,3.6664458e-6)"
     style="fill:none;fill-rule:evenodd;stroke:none;stroke-width:1">
    <g
       id="Monogram"
       style="fill-rule:nonzero">
      <rect
         id="Rectangle-path"
         x="0"
         y="0"
         width="195"
         height="195"
         style="fill:#12100e" />
      <path
         d="M 46.53408,65.215755 C 46.696838,63.607657 46.0836,62.018231 44.88282,60.93592 L 32.65126,46.201058 32.65126,44 70.630252,44 99.985994,108.38095 125.79458,44 162,44 l 0,2.201058 -10.45798,10.027043 c -0.9016,0.687247 -1.34883,1.816785 -1.162,2.934744 l 0,73.674305 c -0.18683,1.11796 0.2604,2.2475 1.162,2.93475 l 10.21335,10.02704 0,2.20106 -51.37255,0 0,-2.20106 10.5803,-10.2716 c 1.03968,-1.03939 1.03968,-1.34509 1.03968,-2.93475 l 0,-59.55085 -29.416899,74.7137 -3.975257,0 -34.248366,-74.7137 0,50.07407 c -0.28555,2.10526 0.413642,4.22479 1.895892,5.74721 l 13.760504,16.69136 0,2.20106 -39.018674,0 0,-2.20106 13.760504,-16.69136 c 1.471458,-1.52494 2.12988,-3.65853 1.773576,-5.74721 l 0,-57.900055 z"
         id="Shape"
         inkscape:connector-curvature="0"
         style="fill:#ffffff" />
    </g>
  </g>
</svg>
