<svg id="Layer_1" data-name="Layer 1" xmlns="http://www.w3.org/2000/svg" viewBox="0 0 105.37 56.95"><defs><style>.cls-1{fill:#2c2f2b;}.cls-2{fill:#fee36c;}</style></defs><title>meetupjs</title><g id="Site"><g id="iPhone-5_5S_5C" data-name="iPhone-5/5S/5C"><g id="Logo"><path id="Fill-6" class="cls-1" d="M1.09,3.91V8.37h.07a6.65,6.65,0,0,1,.78-1.93A6.36,6.36,0,0,1,3.24,4.89,6,6,0,0,1,5,3.86a5.39,5.39,0,0,1,2-.37A5.22,5.22,0,0,1,10.5,4.56a5.44,5.44,0,0,1,1.89,3.15h.07a5.58,5.58,0,0,1,2.08-3.06,6,6,0,0,1,3.67-1.16A6.75,6.75,0,0,1,21,4a4.58,4.58,0,0,1,1.77,1.35,5.29,5.29,0,0,1,1,2.08A11.89,11.89,0,0,1,24,10.1V22h-.71V10.1A11.84,11.84,0,0,0,23,7.67a4.65,4.65,0,0,0-.81-1.86,3.8,3.8,0,0,0-1.55-1.2,6.2,6.2,0,0,0-2.45-.42A5.32,5.32,0,0,0,14,6.09a6.2,6.2,0,0,0-1.13,2,7.43,7.43,0,0,0-.39,2.41V22h-.71V10.38A14.13,14.13,0,0,0,11.63,8a5.4,5.4,0,0,0-.72-2A3.73,3.73,0,0,0,9.42,4.68a5.38,5.38,0,0,0-2.47-.49,4.89,4.89,0,0,0-2.44.62A5.81,5.81,0,0,0,2.66,6.46,7.77,7.77,0,0,0,1.49,8.87a10.11,10.11,0,0,0-.41,2.88V22H.38V3.91h.71" transform="translate(-0.29 -0.11)"/><path id="Fill-7" class="cls-1" d="M26.53,16.48a8,8,0,0,0,1.25,2.73A5.92,5.92,0,0,0,30,21a7.3,7.3,0,0,0,3.28.67A7.41,7.41,0,0,0,38,20.21a6.75,6.75,0,0,0,2.35-4.48h.71a7.2,7.2,0,0,1-2.51,4.91,8,8,0,0,1-5.23,1.74,8.15,8.15,0,0,1-3.62-.67,6.36,6.36,0,0,1-2.45-2,8.75,8.75,0,0,1-1.41-3,14.66,14.66,0,0,1-.46-3.75,11.19,11.19,0,0,1,.67-4,9.35,9.35,0,0,1,1.77-3,7.44,7.44,0,0,1,5.51-2.48A7.76,7.76,0,0,1,37,4.29a7.19,7.19,0,0,1,2.51,2.15A8.91,8.91,0,0,1,40.9,9.5a12.5,12.5,0,0,1,.37,3.59H26.09a14.57,14.57,0,0,0,.44,3.39ZM40.11,9.24a7.84,7.84,0,0,0-1.36-2.62A6.43,6.43,0,0,0,36.5,4.84a7,7,0,0,0-3.11-.65,6.87,6.87,0,0,0-2.77.56,6.58,6.58,0,0,0-2.26,1.64A8.46,8.46,0,0,0,26.79,9a10.82,10.82,0,0,0-.71,3.41H40.57a10.68,10.68,0,0,0-.46-3.15Z" transform="translate(-0.29 -0.11)"/><path id="Fill-8" class="cls-1" d="M43.48,16.48a8,8,0,0,0,1.25,2.73A5.92,5.92,0,0,0,46.92,21a7.3,7.3,0,0,0,3.28.67A7.41,7.41,0,0,0,55,20.21a6.75,6.75,0,0,0,2.35-4.48H58a7.2,7.2,0,0,1-2.51,4.91,8,8,0,0,1-5.23,1.74,8.15,8.15,0,0,1-3.62-.67,6.36,6.36,0,0,1-2.45-2,8.75,8.75,0,0,1-1.41-3,14.66,14.66,0,0,1-.46-3.75,11.18,11.18,0,0,1,.67-4,9.35,9.35,0,0,1,1.77-3,7.45,7.45,0,0,1,5.51-2.48,7.75,7.75,0,0,1,3.65.81,7.19,7.19,0,0,1,2.51,2.15A8.92,8.92,0,0,1,57.85,9.5a12.51,12.51,0,0,1,.37,3.59H43a14.6,14.6,0,0,0,.44,3.39ZM57.06,9.24A7.85,7.85,0,0,0,55.7,6.62a6.43,6.43,0,0,0-2.24-1.78,7,7,0,0,0-3.11-.65,6.87,6.87,0,0,0-2.77.56,6.58,6.58,0,0,0-2.26,1.64A8.45,8.45,0,0,0,43.74,9,10.83,10.83,0,0,0,43,12.38H57.51a10.69,10.69,0,0,0-.46-3.15Z" transform="translate(-0.29 -0.11)"/><path id="Fill-9" class="cls-1" d="M61.58,18.47a4.32,4.32,0,0,0,.23,1.58,2,2,0,0,0,.58.84,1.54,1.54,0,0,0,.78.33,6.88,6.88,0,0,0,.85.05l1,0a2,2,0,0,0,.6-.09v.7l-.62.07q-.3,0-1.11,0a3.17,3.17,0,0,1-2.1-.72,3.33,3.33,0,0,1-.87-2.66v-14H57.55v-.7h3.32V.59h.71V3.91h4.1v.7h-4.1V18.47" transform="translate(-0.29 -0.11)"/><path id="Fill-1" class="cls-1" d="M13.36,43.1V38.64h-.07a6.22,6.22,0,0,1-2.17,3.48,6.67,6.67,0,0,1-4.36,1.37,8,8,0,0,1-2.6-.4,5.49,5.49,0,0,1-2-1.23,5.6,5.6,0,0,1-1.34-2A7.61,7.61,0,0,1,.29,37V25H1V36.91a7,7,0,0,0,.46,2.69,5,5,0,0,0,1.25,1.83,4.94,4.94,0,0,0,1.84,1.06,7.17,7.17,0,0,0,2.21.33,6.33,6.33,0,0,0,2.86-.62,6.07,6.07,0,0,0,2.07-1.65,7.23,7.23,0,0,0,1.25-2.41,9.71,9.71,0,0,0,.42-2.88V25h.71V43.1h-.71" transform="translate(-0.29 -0.11)"/><path id="Fill-2" class="cls-1" d="M16.54,46.77V25h.71v5.07h.07a8,8,0,0,1,1-2.2,7.73,7.73,0,0,1,1.59-1.74A6.86,6.86,0,0,1,22,25a7.87,7.87,0,0,1,2.56-.4,7.23,7.23,0,0,1,3.23.7,7.08,7.08,0,0,1,2.44,2,9,9,0,0,1,1.54,3,13.35,13.35,0,0,1,0,7.39,9.55,9.55,0,0,1-1.48,3,6.91,6.91,0,0,1-5.74,2.81A7.4,7.4,0,0,1,19.82,42a7.22,7.22,0,0,1-2.51-4h-.07v8.74ZM27.78,42A6.81,6.81,0,0,0,30,40a9,9,0,0,0,1.25-2.81A12.51,12.51,0,0,0,31.62,34a12.18,12.18,0,0,0-.44-3.32,8.93,8.93,0,0,0-1.31-2.78A6.26,6.26,0,0,0,27.68,26a6.5,6.5,0,0,0-3.09-.7,6.73,6.73,0,0,0-3.11.7,6.85,6.85,0,0,0-2.31,1.9,8.64,8.64,0,0,0-1.43,2.78A11.15,11.15,0,0,0,17.24,34q0,4.26,2,6.52a6.78,6.78,0,0,0,5.33,2.27,6.12,6.12,0,0,0,3.2-.79Z" transform="translate(-0.29 -0.11)"/><path id="Fill-3" class="cls-2" d="M37.75,41.17a2.34,2.34,0,1,1-2.34-2.33,2.34,2.34,0,0,1,2.34,2.33" transform="translate(-0.29 -0.11)"/><path id="Fill-4" class="cls-1" d="M50.64,24.54V37.07c0,3.91-2.05,6.52-6.18,6.52a5.57,5.57,0,0,1-4.8-2.73l2.79-2.93c.54.74,1.31,1.58,2,1.58,1.43,0,1.38-1.7,1.38-2.73V24.54h4.84" transform="translate(-0.29 -0.11)"/><path id="Fill-5" class="cls-1" d="M62.94,29.32a5.1,5.1,0,0,0-3.21-1.23c-.89,0-2.08.52-2.08,1.55s1.31,1.5,2.15,1.77l1.24.37c2.6.76,4.6,2.07,4.6,5.07a6.29,6.29,0,0,1-1.93,5,8.2,8.2,0,0,1-5.29,1.75,11.53,11.53,0,0,1-6.55-2.12l2.08-3.89a6.66,6.66,0,0,0,4.3,1.92c1.14,0,2.35-.57,2.35-1.87s-1.9-1.82-2.94-2.12c-3-.86-5-1.65-5-5.24C52.61,26.51,55.31,24,59,24a12.78,12.78,0,0,1,5.83,1.53l-1.93,3.74" transform="translate(-0.29 -0.11)"/><g id="Tag"><path id="Fill-10" class="cls-1" d="M4.55,51.56l-.34-.13.32-.16a1.91,1.91,0,0,0,1.17-1.69c0-1.28-1-2-2.75-2H.66v7.92H2.91c1.94,0,3.05-.79,3.05-2.16a1.94,1.94,0,0,0-1.41-1.82ZM1.81,48.34h1c1.53,0,1.7,1,1.7,1.42,0,.87-.57,1.38-1.58,1.38H1.81V48.34ZM3,54.8H1.81V51.85H2.87c1.65,0,1.83,1.06,1.83,1.52S4.49,54.8,3,54.8Z" transform="translate(-0.29 -0.11)"/><path id="Fill-11" class="cls-1" d="M12.31,52.76v-3H11.23V52.6a2.44,2.44,0,0,1-.62,1.81,1.44,1.44,0,0,1-1,.48c-.43,0-1-.22-1-1.25V49.79H7.56v3.88A2.11,2.11,0,0,0,8,55.2a1.55,1.55,0,0,0,1.16.4,2.12,2.12,0,0,0,2-1.22l.23-.49.07.53a2.53,2.53,0,0,0,.33.94,2.61,2.61,0,0,0,.16.23l.82-.32a2.33,2.33,0,0,1-.21-.45,6.12,6.12,0,0,1-.3-2.07" transform="translate(-0.29 -0.11)"/><path id="Fill-12" class="cls-1" d="M16.87,49.65c-1.72,0-2.78,1.21-2.78,3.16s.83,2.81,2.48,2.81a4.83,4.83,0,0,0,1.56-.27c.18-.06.36-.13.53-.21l-.25-.59-.47.16a4.3,4.3,0,0,1-1.18.21,1.48,1.48,0,0,1-1.5-1.5l0-.18h.18c1.93,0,3.34-.89,3.34-2s-.67-1.57-1.88-1.57Zm-1.49,3h-.17v-.17c.07-1.84.87-2.22,1.54-2.22a.87.87,0,0,1,.9.93c0,.68-.71,1.42-2.28,1.46Z" transform="translate(-0.29 -0.11)"/><path id="Fill-13" class="cls-1" d="M23.58,49.69a2.12,2.12,0,0,0-2,1.27l-.2.46-.1-.49a3,3,0,0,0-.34-.93l-.15-.22-.83.33a2.92,2.92,0,0,1,.2.44,6.1,6.1,0,0,1,.32,2.07v2.91h1.08V52.72A2.34,2.34,0,0,1,22.14,51a1.47,1.47,0,0,1,1-.48c.44,0,1,.22,1,1.28v3.77h1.08v-3.9a2.11,2.11,0,0,0-.47-1.53,1.55,1.55,0,0,0-1.16-.4" transform="translate(-0.29 -0.11)"/><path id="Fill-14" class="cls-1" d="M29.43,49.65c-1.64,0-2.62,1.15-2.62,3.08s.85,2.93,2.51,2.93c1.94,0,2.62-1.58,2.62-3.06,0-2-.85-2.94-2.51-2.94Zm0,5.29C28.15,54.94,28,53.6,28,52.6s.14-2.24,1.31-2.24,1.44,1.34,1.44,2.35-.14,2.23-1.31,2.23Z" transform="translate(-0.29 -0.11)"/><path id="Fill-15" class="cls-1" d="M35.57,52.27c-.92-.35-1.12-.86-1.12-1.22s.34-.69.84-.69a3.33,3.33,0,0,1,1,.22l.34.13.3-.67-.43-.16a3.73,3.73,0,0,0-1.27-.23,1.75,1.75,0,0,0-1.9,1.54c0,.87.45,1.37,1.66,1.82.82.33,1,.8,1,1.15s-.1.78-1,.78a2.9,2.9,0,0,1-1.1-.31l-.42-.21-.32.73a5.11,5.11,0,0,0,.53.22,4.39,4.39,0,0,0,1.44.28,1.77,1.77,0,0,0,2-1.65c0-.95-.56-1.35-1.53-1.72" transform="translate(-0.29 -0.11)"/><path id="Fill-16" class="cls-1" d="M42,47.61,39,55.53h1.12l.77-2.15H44l.76,2.15H46L43,47.61Zm1.76,5H41.13l.08-.21c.42-1.17.75-2.21,1-3l.28-.89.15.51c.21.73.6,2,1.08,3.36l.07.21Z" transform="translate(-0.29 -0.11)"/><path id="Fill-17" class="cls-1" d="M48.8,54.86c-.44,0-.5-.34-.5-.63V49.79H47.22v4.57a1.09,1.09,0,0,0,1.17,1.22A2.06,2.06,0,0,0,49,55.5l.09,0-.1-.62H48.8" transform="translate(-0.29 -0.11)"/><path id="Fill-18" class="cls-1" d="M47.74,48.46a.64.64,0,0,0,.7-.7.62.62,0,0,0-.66-.68.65.65,0,0,0-.69.72.62.62,0,0,0,.66.67" transform="translate(-0.29 -0.11)"/><path id="Fill-19" class="cls-1" d="M53.33,49.71a1.61,1.61,0,0,0-1.61,1.21l-.19.54-.11-.57a2.75,2.75,0,0,0-.34-.89l-.15-.21-.81.32a2.89,2.89,0,0,1,.2.44,6.09,6.09,0,0,1,.32,2.07v2.91h1.09v-3.2a1.56,1.56,0,0,1,1.38-1.58,1.41,1.41,0,0,1,.49.08l.3-1-.07,0a2.09,2.09,0,0,0-.48-.07" transform="translate(-0.29 -0.11)"/><path id="Fill-20" class="cls-1" d="M57.5,49.65c-1.72,0-2.78,1.21-2.78,3.16s.83,2.81,2.48,2.81a4.83,4.83,0,0,0,1.56-.27c.18-.06.36-.13.53-.21L59,54.55l-.47.16a4.29,4.29,0,0,1-1.18.21,1.48,1.48,0,0,1-1.5-1.5l0-.18H56c1.93,0,3.34-.89,3.34-2s-.67-1.57-1.88-1.57Zm-1.49,3h-.17v-.17c.07-1.84.87-2.22,1.54-2.22a.87.87,0,0,1,.9.93c0,.68-.71,1.42-2.28,1.46Z" transform="translate(-0.29 -0.11)"/><path id="Fill-21" class="cls-1" d="M62.94,52.27c-.92-.35-1.12-.86-1.12-1.22s.34-.69.84-.69a3.33,3.33,0,0,1,1,.22l.34.13.3-.67-.43-.16a3.73,3.73,0,0,0-1.27-.23,1.75,1.75,0,0,0-1.9,1.54c0,.87.45,1.37,1.65,1.82.82.33,1,.8,1,1.15s-.1.78-1,.78a2.9,2.9,0,0,1-1.1-.31l-.42-.21-.32.73a5.13,5.13,0,0,0,.53.22,4.4,4.4,0,0,0,1.44.28,1.77,1.77,0,0,0,2-1.65c0-.95-.56-1.35-1.53-1.72" transform="translate(-0.29 -0.11)"/></g><path id="Fill-22" class="cls-2" d="M71.95,37.3c0-3.23-1.38-5.47-4.21-6.16V26c2.83-.68,4.21-2.92,4.21-6.16,0-3.73-.84-8.08-.84-12.56C71.1,1.74,76-1.37,84.89.81L83.51,6.09C78.93,4.42,78,6.84,78,8.27c0,3.73.78,7.46.78,10.69,0,3.67-.66,7-5,9.64,4.34,2.67,5,6,5,9.57,0,3.23-.78,7-.78,10.69,0,1.43.9,3.85,5.48,2.18l1.39,5.28c-8.79,2.3-13.79-1.06-13.79-6.47,0-4.48.84-8.83.84-12.56" transform="translate(-0.29 -0.11)"/><path id="Fill-23" class="cls-2" d="M88.51,56.33,89.89,51c4.58,1.68,5.48-.75,5.48-2.18,0-3.73-.78-7.46-.78-10.69,0-3.54.66-7,4.94-9.57-4.28-2.61-4.94-6-4.94-9.64,0-3.23.78-7,.78-10.69,0-1.43-.9-3.85-5.48-2.18L88.51.81c8.79-2.11,13.79.93,13.79,6.47,0,4.48-.84,8.83-.84,12.56,0,3.23,1.38,5.47,4.22,6.16v5.16c-2.83.68-4.22,2.92-4.22,6.16,0,3.73.84,8.08.84,12.56,0,5.41-5,8.77-13.79,6.47" transform="translate(-0.29 -0.11)"/></g></g></g></svg>