<svg width="20" height="20" viewBox="0 0 20 20" version="1.1" xmlns="http://www.w3.org/2000/svg" xmlns:xlink="http://www.w3.org/1999/xlink">
<title>meetup-logo</title>
<g id="Canvas" transform="translate(-3324 -2656)">
<g id="meetup-logo">
<g id="Layer_1">
<g id="Shape">
<use xlink:href="#path0_fill" transform="translate(3324 2656.03)" fill="#ED1C40"/>
</g>
<g id="Shape">
<use xlink:href="#path1_fill" transform="translate(3328.53 2661.94)" fill="#FFFFFF"/>
</g>
</g>
</g>
</g>
<defs>
<path id="path0_fill" fill-rule="evenodd" d="M 17.2478 12.2337C 17.2494 13.965 16.0009 15.4564 14.3033 15.7496C 14.0895 15.7863 13.8737 15.8079 13.6567 15.8059C 13.5836 15.8051 13.5549 15.8343 13.5317 15.9012C 13.1927 16.873 12.5164 17.4523 11.4946 17.5984C 10.8187 17.6949 10.2053 17.5139 9.66763 17.0919C 9.59274 17.0331 9.54695 17.0321 9.46885 17.0878C 8.83998 17.537 8.13487 17.7359 7.36489 17.6895C 5.86238 17.5989 4.59815 16.4521 4.36165 14.9733C 4.34539 14.8711 4.32809 14.7681 4.32653 14.6651C 4.32497 14.5794 4.2924 14.5463 4.21045 14.5303C 3.75556 14.4417 3.34276 14.2546 2.97857 13.97C 2.30832 13.4459 1.90619 12.7617 1.81259 11.9153C 1.70584 10.9465 2.00546 10.1089 2.68783 9.41096C 2.74283 9.35497 2.74626 9.31597 2.70874 9.25012C 2.44642 8.79276 2.32207 8.2974 2.34226 7.7721C 2.39263 6.46109 3.30615 5.37795 4.57682 5.10979C 4.72382 5.07859 4.80089 5.02103 4.8655 4.88191C 5.49224 3.53346 6.54459 2.71336 8.00489 2.44288C 9.03 2.25289 9.99704 2.4563 10.8944 2.98339C 10.9698 3.02783 11.033 3.03141 11.1146 3.00767C 12.5399 2.59471 13.8028 2.89513 14.8749 3.91321C 15.509 4.51513 15.8564 5.27691 15.9593 6.14597C 15.9818 6.33596 15.992 6.52774 15.9775 6.71875C 15.9721 6.791 15.9943 6.8212 16.0628 6.8465C 16.7053 7.08401 17.1484 7.52691 17.3422 8.18201C 17.5836 8.9969 17.3809 9.71147 16.7711 10.3056C 16.7183 10.3572 16.7294 10.3888 16.7594 10.4403C 17.0816 10.9947 17.2485 11.5915 17.2478 12.2337ZM 10.8882 11.9558C 10.8887 12.6924 11.3623 13.3435 12.0338 13.5647C 12.3703 13.6757 12.7174 13.7284 13.0698 13.7439C 13.3213 13.7547 13.5724 13.7372 13.8049 13.6215C 13.9876 13.5304 14.0737 13.3799 14.0654 13.1793C 14.0572 12.9775 13.9667 12.8265 13.7733 12.7462C 13.7061 12.7183 13.6379 12.6956 13.5665 12.6832C 13.3533 12.6452 13.139 12.6132 12.9268 12.5712C 12.5766 12.5015 12.4297 12.3164 12.4251 11.9628C 12.421 11.6499 12.506 11.3549 12.6024 11.063C 12.7787 10.5287 13.0164 10.0194 13.2442 9.50598C 13.4641 9.01016 13.6947 8.51841 13.85 7.99619C 13.9356 7.70942 13.9764 7.42189 13.8987 7.1253C 13.7803 6.67514 13.5101 6.37342 13.0443 6.28664C 12.6179 6.20739 12.1934 6.19838 11.8078 6.45236C 11.6796 6.53651 11.5563 6.51638 11.4449 6.41827C 11.3599 6.34367 11.279 6.26469 11.1958 6.18803C 10.8024 5.82536 10.2823 5.80756 9.85998 6.13876C 9.68958 6.27245 9.54619 6.4382 9.36109 6.55435C 9.19568 6.65809 9.0289 6.6875 8.84574 6.58996C 8.67126 6.49702 8.49061 6.41523 8.31042 6.33366C 8.12791 6.25133 7.95111 6.14964 7.74566 6.13234C 7.09583 6.0771 6.41579 6.46274 6.12913 7.04895C 6.00193 7.30837 5.89808 7.57787 5.7996 7.84912C 5.3449 9.1031 4.97454 10.3839 4.59122 11.6603C 4.41957 12.2316 4.62216 12.7937 5.10654 13.1022C 5.48444 13.3427 5.89823 13.4022 6.32661 13.2736C 6.67366 13.1693 6.86372 12.8904 6.99656 12.5769C 7.438 11.5373 7.83557 10.4799 8.25636 9.43198C 8.37217 9.14362 8.48429 8.85403 8.60715 8.56878C 8.73118 8.28076 9.0876 8.18264 9.29903 8.37366C 9.4281 8.49026 9.46212 8.64548 9.44947 8.81142C 9.43556 8.98878 9.36677 9.15237 9.30216 9.31527C 9.02837 10.0065 8.74951 10.6957 8.4745 11.3865C 8.41892 11.5262 8.35869 11.6647 8.33412 11.8146C 8.29202 12.0721 8.39408 12.3003 8.60494 12.3911C 8.82006 12.4838 9.04338 12.4993 9.26638 12.4184C 9.52589 12.3245 9.68097 12.1216 9.80044 11.8872C 10.2109 11.0822 10.6182 10.2752 11.0284 9.47018C 11.2179 9.09827 11.4107 8.72811 11.6043 8.3584C 11.6762 8.22137 11.7605 8.09153 11.8948 8.00635C 12.0161 7.92969 12.1468 7.92399 12.2712 7.99372C 12.3925 8.06159 12.4006 8.18553 12.3955 8.30788C 12.3927 8.37366 12.3743 8.43795 12.349 8.49912C 12.2958 8.62634 12.2461 8.75546 12.1871 8.88017C 11.846 9.59694 11.4996 10.3109 11.1615 11.0293C 11.019 11.3324 10.8706 11.6371 10.8882 11.9558ZM 15.6737 17.2383C 15.6745 16.7629 15.2755 16.3653 14.7954 16.364C 14.3035 16.3622 13.9045 16.7553 13.9024 17.243C 13.9003 17.7197 14.3062 18.1241 14.7861 18.1247C 15.2729 18.1252 15.673 17.7257 15.6737 17.2383ZM 0.835467 9.95232C 1.2984 9.95335 1.68792 9.56694 1.6861 9.10879C 1.684 8.64987 1.30278 8.26936 0.843733 8.26807C 0.373257 8.26681 -0.000266524 8.63956 1.42695e-07 9.11012C 0.000381095 9.57573 0.3728 9.9513 0.835467 9.95232ZM 11.2013 0.528334C 10.7361 0.525747 10.3569 0.897202 10.3543 1.35768C 10.3514 1.81766 10.7293 2.19558 11.1922 2.19608C 11.6533 2.19634 12.0237 1.82747 12.0245 1.36669C 12.0257 0.903669 11.6594 0.530654 11.2013 0.528334ZM 18.0517 5.74133C 18.0496 5.35953 17.7237 5.03483 17.3398 5.03224C 16.948 5.02943 16.616 5.3601 16.6187 5.75062C 16.6214 6.14014 16.9379 6.45244 17.3302 6.45297C 17.7345 6.45377 18.0539 6.13835 18.0517 5.74133ZM 3.37524 3.70248C 3.37524 4.06104 3.65467 4.34237 4.01136 4.3429C 4.37265 4.34339 4.65292 4.06054 4.65163 3.69681C 4.65033 3.344 4.37041 3.06803 4.01498 3.06909C 3.64945 3.06982 3.37543 3.3411 3.37524 3.70248ZM 10.0574 18.4907C 10.0604 18.1921 9.81438 17.9461 9.51195 17.9451C 9.20151 17.9441 8.9577 18.1844 8.9585 18.4902C 8.9593 18.792 9.20185 19.031 9.50684 19.031C 9.81156 19.0312 10.0547 18.7927 10.0574 18.4907ZM 18.5898 10.0054C 18.2993 10.0033 18.0473 10.255 18.0496 10.5449C 18.0521 10.8313 18.2916 11.0665 18.5815 11.0671C 18.8855 11.0677 19.1135 10.8441 19.1143 10.5441C 19.1151 10.2472 18.8817 10.0074 18.5898 10.0054ZM 5.82838 4.03116e-06C 5.57223 -0.00102314 5.37451 0.194367 5.37451 0.448915C 5.37451 0.701865 5.57428 0.898549 5.83021 0.897256C 6.07859 0.895962 6.27322 0.698213 6.27322 0.447051C 6.27325 0.193568 6.08167 0.0012975 5.82838 4.03116e-06ZM 19.6036 7.5945C 19.3948 7.59215 19.2055 7.77879 19.2029 7.99019C 19.2001 8.20883 19.3823 8.39079 19.6046 8.39132C 19.8254 8.39212 19.9985 8.2207 20.0001 7.99925C 20.0022 7.7765 19.8263 7.59732 19.6036 7.5945ZM 3.79186 15.4694C 3.79285 15.2577 3.6101 15.0755 3.39483 15.0735C 3.17662 15.0716 2.99723 15.255 2.99879 15.478C 3.00058 15.6959 3.17765 15.868 3.39818 15.8664C 3.61456 15.8651 3.79113 15.6873 3.79186 15.4694Z"/>
<path id="path1_fill" fill-rule="evenodd" d="M 6.35721 6.05323C 6.35774 6.78986 6.83126 7.44093 7.50277 7.66216C 7.8393 7.77313 8.18643 7.82578 8.53877 7.84126C 8.79031 7.85211 9.04144 7.83457 9.27385 7.71888C 9.4566 7.62776 9.54269 7.47727 9.53443 7.27674C 9.52616 7.07488 9.43565 6.92393 9.24231 6.84358C 9.17511 6.81569 9.10688 6.79298 9.03553 6.78062C 8.82227 6.74261 8.60799 6.71062 8.3958 6.66862C 8.04559 6.59896 7.89873 6.41384 7.89408 6.06019C 7.89001 5.74736 7.975 5.4523 8.07138 5.16039C 8.24768 4.62607 8.4854 4.11682 8.71321 3.60339C 8.93313 3.10757 9.16368 2.61582 9.31904 2.0936C 9.4046 1.80683 9.44544 1.5193 9.36765 1.22272C 9.24925 0.772549 8.97911 0.470828 8.51332 0.384051C 8.08688 0.304807 7.66243 0.295791 7.27679 0.549768C 7.14856 0.63392 7.02524 0.613795 6.91393 0.515681C 6.8289 0.441078 6.74799 0.3621 6.66475 0.285443C 6.27138 -0.0772241 5.7513 -0.0950284 5.32898 0.236177C 5.15858 0.369861 5.01519 0.535616 4.83008 0.651762C 4.66467 0.755506 4.49789 0.784913 4.31473 0.68737C 4.14025 0.594431 3.95961 0.512637 3.77942 0.431073C 3.5969 0.348747 3.4201 0.247057 3.21465 0.229747C 2.56483 0.174508 1.88479 0.560154 1.59812 1.14636C 1.47092 1.40578 1.36707 1.67528 1.2686 1.94653C 0.813892 3.20051 0.443531 4.48132 0.0602163 5.75771C -0.111441 6.32897 0.0911496 6.89109 0.575531 7.19963C 0.953435 7.44014 1.36723 7.4996 1.79561 7.37105C 2.14265 7.26673 2.33271 6.98776 2.46555 6.67436C 2.907 5.63468 3.30456 4.57734 3.72536 3.5294C 3.84117 3.24103 3.95328 2.95144 4.07614 2.66619C 4.20018 2.37817 4.5566 2.28005 4.76803 2.47107C 4.89709 2.58767 4.93111 2.74289 4.91846 2.90883C 4.90456 3.08619 4.83576 3.24978 4.77115 3.41268C 4.49736 4.10393 4.2185 4.79316 3.94349 5.48387C 3.88791 5.62357 3.82768 5.76212 3.80311 5.91205C 3.76102 6.16949 3.86307 6.39767 4.07393 6.48848C 4.28905 6.58119 4.51237 6.59668 4.73538 6.51583C 4.99488 6.42191 5.14997 6.21902 5.26944 5.9846C 5.67991 5.1796 6.08723 4.37263 6.49744 3.56759C 6.68692 3.19568 6.87972 2.82552 7.07328 2.45581C 7.14521 2.31878 7.22947 2.18894 7.36384 2.10376C 7.48513 2.0271 7.61584 2.0214 7.74018 2.09113C 7.86151 2.159 7.86963 2.28295 7.86452 2.40529C 7.86174 2.47107 7.8433 2.53536 7.81797 2.59654C 7.76479 2.72375 7.71511 2.85287 7.65614 2.97758C 7.31496 3.69435 6.9686 4.40835 6.63046 5.12668C 6.48795 5.42985 6.33961 5.73446 6.35721 6.05323Z"/>
</defs>
</svg>
