<svg id="Layer_1" data-name="Layer 1" xmlns="http://www.w3.org/2000/svg" viewBox="0 0 460.64 529.34"><defs><style>.cls-1,.cls-5{fill:#a9d8f4;}.cls-1,.cls-2,.cls-4,.cls-5,.cls-6,.cls-7{stroke:#5ab3e5;}.cls-1,.cls-2,.cls-5,.cls-7{stroke-linecap:round;}.cls-1,.cls-2,.cls-4,.cls-5,.cls-7{stroke-linejoin:round;}.cls-1{stroke-width:16.74px;}.cls-2,.cls-4,.cls-6{fill:none;}.cls-2,.cls-4,.cls-5,.cls-6{stroke-width:5.81px;}.cls-3{fill:#5ab3e5;}.cls-6{stroke-miterlimit:10;}.cls-7{fill:#feee0b;stroke-width:4.41px;}</style></defs><title>nodeschoolba2</title><polygon class="cls-1" points="452.27 392.77 230.27 520.97 8.37 392.77 8.37 136.47 230.27 8.37 452.27 136.47 452.27 392.77"/><path class="cls-2" d="M162.6,296.7H74.4a7,7,0,0,0-7,7v67.2H111" transform="translate(-0.03 -0.03)"/><path class="cls-2" d="M337.4,370.9h60V303.7a7,7,0,0,0-7-7H299.5" transform="translate(-0.03 -0.03)"/><line class="cls-2" x1="263.37" y1="370.87" x2="312.17" y2="370.87"/><line class="cls-2" x1="136.07" y1="370.87" x2="198.77" y2="370.87"/><circle class="cls-2" cx="123.57" cy="369.67" r="12.6"/><circle class="cls-2" cx="324.87" cy="369.67" r="12.6"/><rect class="cls-2" x="77.47" y="313.87" width="21.9" height="57"/><polyline class="cls-2" points="177.97 331.47 177.97 370.87 195.57 370.87"/><rect class="cls-2" x="349.07" y="313.87" width="21.9" height="57"/><rect class="cls-2" x="99.47" y="313.87" width="39.3" height="30.7"/><polyline class="cls-2" points="291.87 313.87 309.77 313.87 309.77 344.57 278.17 344.57"/><rect class="cls-2" x="309.77" y="313.87" width="39.3" height="30.7"/><polyline class="cls-2" points="177.97 333.77 177.97 344.57 138.67 344.57 138.67 313.87 170.17 313.87"/><polygon class="cls-2" points="387.57 334.97 371.07 344.57 371.07 313.87 387.57 313.87 387.57 334.97"/><path class="cls-3" d="M172.5,418.9a1.46,1.46,0,0,1,.5-2l4.1-2.4a4.53,4.53,0,0,1,3.6-.7,2.85,2.85,0,0,1,1.9,1.5h0a3,3,0,0,1-.1,3.4,3.18,3.18,0,0,1,3.8,1.6h0c1.2,2.1.1,4.2-2.5,5.7l-4.2,2.5a1.46,1.46,0,0,1-2-.5Zm6.8.7c1.1-.7,1.6-1.4,1.1-2.3h0c-.4-.8-1.3-.8-2.4-.2l-2.5,1.5,1.4,2.5Zm3.4,4.2c1.1-.7,1.6-1.4,1.1-2.3h0c-.4-.8-1.3-.9-2.6-.2l-3,1.7,1.5,2.6Z" transform="translate(-0.03 -0.03)"/><path class="cls-3" d="M224.5,414.1v-6.3a1.5,1.5,0,1,1,3,0V414c0,2.2,1.1,3.3,2.9,3.3s2.9-1.1,2.9-3.2v-6.3a1.5,1.5,0,0,1,3,0V414c0,4.1-2.3,6.1-5.9,6.1S224.5,418,224.5,414.1Z" transform="translate(-0.03 -0.03)"/><path class="cls-3" d="M274.3,423.1l5.2-9.1a1.38,1.38,0,0,1,2-.5l6.4,3.7a1.44,1.44,0,0,1,.5,1.8,1.41,1.41,0,0,1-1.8.5l-5.2-3-1.4,2.4,4.4,2.6a1.32,1.32,0,0,1-1.3,2.3l-4.4-2.6-1.4,2.4,5.3,3a1.32,1.32,0,0,1-1.3,2.3l-6.5-3.8A1.38,1.38,0,0,1,274.3,423.1Z" transform="translate(-0.03 -0.03)"/><path class="cls-3" d="M322.2,94.3,231.4,41.9h0a.37.37,0,0,0-.3-.1h-.8a.9.9,0,0,0-.5.1h-.2a.76.76,0,0,0-.4.2h-.1L139.8,93.7a2.2,2.2,0,0,0,2.2,3.8l79.4-45.8L187.6,94.8a2.21,2.21,0,1,0,3.5,2.7l36.9-47v46a2.2,2.2,0,1,0,4.4,0v-46l36.9,47a2.09,2.09,0,0,0,1.7.9,2.39,2.39,0,0,0,1.4-.5,2.23,2.23,0,0,0,.4-3.1L239,51.7l81,46.5a2,2,0,0,0,1.1.3,2.14,2.14,0,0,0,1.9-1.1A2.26,2.26,0,0,0,322.2,94.3Z" transform="translate(-0.03 -0.03)"/><path class="cls-3" d="M321.5,432.7a2.17,2.17,0,0,0-3-.8l-79.4,45.8,33.7-43.1a2.21,2.21,0,0,0-3.5-2.7l-36.9,47v-46a2.2,2.2,0,1,0-4.4,0v46l-36.9-47a2.21,2.21,0,1,0-3.5,2.7l33.7,43.1L140.7,431a2.2,2.2,0,1,0-2.2,3.8l90.8,52.4h.1a.35.35,0,0,1,.2.1h.3c.2,0,.3.1.5.1h0a.75.75,0,0,0,.5-.1h.1a.1.1,0,0,0,.1-.1c.1,0,.2-.1.3-.1h.1l89.3-51.6A1.86,1.86,0,0,0,321.5,432.7Z" transform="translate(-0.03 -0.03)"/><circle class="cls-3" cx="327.47" cy="428.47" r="2.8"/><circle class="cls-3" cx="131.97" cy="428.47" r="2.8"/><path class="cls-3" d="M148.6,133.5a1.77,1.77,0,0,0,1.4-2c-.5-2.8-1.1-5.5-1.6-8.3,2.9,2.5,5.9,5.1,8.7,7.6a2.37,2.37,0,0,0,2,.7h.1a1.69,1.69,0,0,0,1.4-2c-.7-4.1-1.4-8.3-2.1-12.4a1.82,1.82,0,0,0-2.1-1.4,1.85,1.85,0,0,0-1.5,2c.5,2.7,1,5.4,1.4,8-2.8-2.5-5.6-4.9-8.5-7.4a2.24,2.24,0,0,0-2.1-.6c-.1,0-.2.1-.4.1a1.74,1.74,0,0,0-1.4,2.1c.9,4.1,1.7,8.2,2.6,12.3A1.8,1.8,0,0,0,148.6,133.5Z" transform="translate(-0.03 -0.03)"/><path class="cls-3" d="M172.3,129.5c4.9-.7,8-4.8,7.4-9.2h0c-.5-4.5-4.6-7.6-9.7-6.9s-8.2,5-7.4,9.4h0A8.37,8.37,0,0,0,172.3,129.5Zm-6-7.4a4.75,4.75,0,0,1,4.1-5.6,4.92,4.92,0,0,1,5.6,4.3h0a4.79,4.79,0,0,1-4.1,5.5,5,5,0,0,1-5.6-4.2Z" transform="translate(-0.03 -0.03)"/><path class="cls-3" d="M185.6,127.6c1.5-.2,3-.3,4.4-.5,5-.5,8.1-4.2,7.8-8.6h0c-.3-4.4-4.2-7.6-9.4-7.1-1.5.2-3.1.3-4.6.5a1.77,1.77,0,0,0-1.6,1.9c.5,4.1.9,8.2,1.4,12.3A1.8,1.8,0,0,0,185.6,127.6Zm.4-12.8,2.8-.3a4.55,4.55,0,0,1,5.3,4.3h0a4.63,4.63,0,0,1-4.4,5.2l-2.7.3C186.6,121.1,186.3,117.9,186,114.8Z" transform="translate(-0.03 -0.03)"/><path class="cls-3" d="M203.3,126c3-.2,5.9-.4,8.9-.5a1.5,1.5,0,0,0,1.5-1.6,1.56,1.56,0,0,0-1.6-1.5c-2.4.1-4.8.2-7.3.4-.1-1.1-.1-2.2-.2-3.3l6.2-.3a1.49,1.49,0,0,0,1.5-1.6,1.59,1.59,0,0,0-1.7-1.5l-6.2.3c-.1-1.1-.1-2.1-.2-3.2,2.4-.2,4.9-.3,7.3-.4a1.55,1.55,0,1,0-.1-3.1c-3.1.1-6.1.3-9.1.5a1.79,1.79,0,0,0-1.7,1.9l.9,12.3A1.58,1.58,0,0,0,203.3,126Z" transform="translate(-0.03 -0.03)"/><path class="cls-3" d="M216.4,123.7a10.17,10.17,0,0,0,6,1.7c3.4-.1,5.8-1.8,5.8-5h0c0-2.8-1.9-3.9-5.2-4.7-2.8-.6-3.5-1-3.6-2h0c0-.8.7-1.4,2.1-1.4a6.94,6.94,0,0,1,3.5,1,1.49,1.49,0,0,0,.9.2,1.67,1.67,0,0,0,1.7-1.6,1.68,1.68,0,0,0-.8-1.4,9.1,9.1,0,0,0-5.3-1.3c-3.4.1-5.7,2.1-5.6,4.9h0c.1,3.1,2.3,3.9,5.5,4.7,2.7.6,3.3,1.1,3.3,2h0c0,.9-.8,1.5-2.3,1.5a7.14,7.14,0,0,1-4.1-1.3,1.49,1.49,0,0,0-1-.3,1.67,1.67,0,0,0-1.6,1.7A1.71,1.71,0,0,0,216.4,123.7Z" transform="translate(-0.03 -0.03)"/><path class="cls-3" d="M238.8,125.4a8.47,8.47,0,0,0,5.7-1.8,1.63,1.63,0,0,0-1-2.9,1.5,1.5,0,0,0-1.1.4,5.13,5.13,0,0,1-3.5,1.2,4.81,4.81,0,0,1-4.6-5h0a4.76,4.76,0,0,1,4.8-4.9,5.55,5.55,0,0,1,3.3,1.2,1.82,1.82,0,0,0,1.1.4,1.69,1.69,0,0,0,1.8-1.6,1.75,1.75,0,0,0-.7-1.4,8.58,8.58,0,0,0-5.5-1.7,8.07,8.07,0,0,0-8.6,8.1h0A8.36,8.36,0,0,0,238.8,125.4Z" transform="translate(-0.03 -0.03)"/><path class="cls-3" d="M249.9,125.6a1.71,1.71,0,0,0,1.8-1.7c.1-1.6.2-3.2.2-4.7,2.2.1,4.4.2,6.5.4-.1,1.6-.2,3.2-.3,4.7a1.78,1.78,0,0,0,1.6,1.9,1.71,1.71,0,0,0,1.9-1.6l.9-12.6a1.79,1.79,0,0,0-1.7-1.9,1.66,1.66,0,0,0-1.9,1.6c-.1,1.5-.2,3.1-.3,4.6-2.2-.1-4.4-.3-6.6-.4.1-1.6.2-3.1.2-4.7a1.71,1.71,0,0,0-1.7-1.8,1.86,1.86,0,0,0-1.9,1.7c-.2,4.2-.3,8.4-.5,12.6A1.88,1.88,0,0,0,249.9,125.6Z" transform="translate(-0.03 -0.03)"/><path class="cls-3" d="M273.1,127.5a8.27,8.27,0,0,0,9.4-7.2h0c.6-4.5-2.6-8.5-7.7-9.1s-9.1,2.9-9.4,7.4h0A8.21,8.21,0,0,0,273.1,127.5Zm-4-8.7a4.72,4.72,0,0,1,5.4-4.4,4.89,4.89,0,0,1,4.4,5.5h0a4.78,4.78,0,0,1-5.3,4.4,4.84,4.84,0,0,1-4.5-5.5Z" transform="translate(-0.03 -0.03)"/><path class="cls-3" d="M292.3,129.9a8.42,8.42,0,0,0,9.8-6.7h0c.8-4.4-2.2-8.7-7.3-9.4s-9.2,2.4-9.8,6.9h0A8.19,8.19,0,0,0,292.3,129.9Zm-3.6-8.8a4.85,4.85,0,0,1,5.6-4.2,4.77,4.77,0,0,1,4.1,5.7h0a4.91,4.91,0,0,1-9.7-1.5Z" transform="translate(-0.03 -0.03)"/><path class="cls-3" d="M305.6,131.8c2.7.5,5.4,1,8.1,1.6a1.58,1.58,0,1,0,.6-3.1c-2.1-.4-4.3-.9-6.4-1.3.7-3.6,1.4-7.2,2-10.9a1.67,1.67,0,0,0-1.5-2,1.74,1.74,0,0,0-2.1,1.4c-.7,4.1-1.5,8.2-2.2,12.3A1.85,1.85,0,0,0,305.6,131.8Z" transform="translate(-0.03 -0.03)"/><circle class="cls-3" cx="232.07" cy="274.87" r="0.6"/><path class="cls-2" d="M341,220.9a355.77,355.77,0,0,0-219.8,0c-6.8-21.1-13.7-42.1-20.5-63.2a422.53,422.53,0,0,1,260.8,0C354.6,178.8,347.8,199.8,341,220.9Z" transform="translate(-0.03 -0.03)"/><line class="cls-4" x1="230.97" y1="135.37" x2="230.97" y2="394.07"/><line class="cls-4" x1="212.17" y1="138.07" x2="226.67" y2="392.47"/><line class="cls-4" x1="193.37" y1="140.77" x2="222.37" y2="390.77"/><line class="cls-4" x1="174.47" y1="143.47" x2="218.07" y2="389.17"/><line class="cls-4" x1="155.67" y1="146.07" x2="213.67" y2="387.47"/><line class="cls-4" x1="136.77" y1="148.77" x2="209.37" y2="385.77"/><line class="cls-4" x1="117.97" y1="151.47" x2="205.07" y2="384.17"/><line class="cls-4" x1="99.07" y1="154.17" x2="200.67" y2="382.47"/><line class="cls-4" x1="230.97" y1="135.37" x2="230.97" y2="394.07"/><line class="cls-4" x1="249.87" y1="138.07" x2="235.37" y2="392.47"/><line class="cls-4" x1="268.67" y1="140.77" x2="239.67" y2="390.77"/><line class="cls-4" x1="287.57" y1="143.47" x2="243.97" y2="389.17"/><line class="cls-4" x1="306.37" y1="146.07" x2="248.37" y2="387.47"/><line class="cls-4" x1="325.27" y1="148.77" x2="252.67" y2="385.77"/><line class="cls-4" x1="344.07" y1="151.47" x2="256.97" y2="384.17"/><line class="cls-4" x1="362.97" y1="154.17" x2="261.27" y2="382.47"/><polygon class="cls-5" points="230.97 163.17 213.47 180.87 200.67 382.47 231.07 394.07 261.37 382.47 248.57 180.87 230.97 163.17"/><line class="cls-2" x1="230.97" y1="163.27" x2="230.97" y2="394.07"/><path class="cls-5" d="M129.8,223.1,97.5,237.5c-2.4-.9-3.8-1.5-6.3-2.4l-29.8-67c.9-2.4,1.5-3.8,2.4-6.3l32.3-14.4Z" transform="translate(-0.03 -0.03)"/><path class="cls-2" d="M79.8,232.2l8.5-3.8L64.4,174.7l-8.5,3.8c-.7,1.9-1.1,3-1.9,4.9l20.9,46.9C76.8,231.1,77.9,231.5,79.8,232.2Z" transform="translate(-0.03 -0.03)"/><path class="cls-6" d="M69.8,218.8A13,13,0,0,1,59.2,195" transform="translate(-0.03 -0.03)"/><circle class="cls-3" cx="78.27" cy="172.67" r="3.2"/><circle class="cls-3" cx="90.17" cy="167.37" r="3.2"/><circle class="cls-3" cx="83.47" cy="184.37" r="3.2"/><circle class="cls-3" cx="95.37" cy="179.07" r="3.2"/><circle class="cls-3" cx="88.67" cy="196.07" r="3.2"/><circle class="cls-3" cx="100.57" cy="190.77" r="3.2"/><circle class="cls-3" cx="93.87" cy="207.77" r="3.2"/><circle class="cls-3" cx="105.87" cy="202.47" r="3.2"/><circle class="cls-3" cx="99.07" cy="219.47" r="3.2"/><circle class="cls-3" cx="111.07" cy="214.17" r="3.2"/><path class="cls-5" d="M332.7,222.1,365,236.5c2.4-.9,3.8-1.5,6.3-2.4l29.8-67c-.9-2.4-1.5-3.8-2.4-6.3l-32.3-14.4Z" transform="translate(-0.03 -0.03)"/><path class="cls-2" d="M382.8,231.1l-8.5-3.8,23.9-53.7,8.5,3.8c.7,1.9,1.1,3,1.9,4.9l-20.9,46.9C385.7,230,384.7,230.4,382.8,231.1Z" transform="translate(-0.03 -0.03)"/><path class="cls-6" d="M392.8,217.7a13,13,0,1,0,10.6-23.8" transform="translate(-0.03 -0.03)"/><circle class="cls-3" cx="384.27" cy="171.57" r="3.2"/><circle class="cls-3" cx="372.27" cy="166.27" r="3.2"/><circle class="cls-3" cx="379.07" cy="183.27" r="3.2"/><circle class="cls-3" cx="367.07" cy="177.97" r="3.2"/><circle class="cls-3" cx="373.87" cy="194.97" r="3.2"/><circle class="cls-3" cx="361.87" cy="189.67" r="3.2"/><circle class="cls-3" cx="368.57" cy="206.67" r="3.2"/><circle class="cls-3" cx="356.67" cy="201.37" r="3.2"/><circle class="cls-3" cx="363.37" cy="218.37" r="3.2"/><circle class="cls-3" cx="351.47" cy="213.07" r="3.2"/><polygon class="cls-7" points="244.27 285.37 231.07 293.07 217.77 285.37 217.77 270.07 231.07 262.47 244.27 270.07 244.27 285.37"/><line class="cls-2" x1="200.67" y1="382.47" x2="53.97" y2="382.47"/><line class="cls-2" x1="411.07" y1="382.47" x2="261.27" y2="382.47"/><path class="cls-5" d="M101.2,272.2a10.54,10.54,0,1,0,0-14.9L86.5,272.2a10.54,10.54,0,1,1,0-14.9" transform="translate(-0.03 -0.03)"/><path class="cls-5" d="M362.5,272.2a10.54,10.54,0,1,1,0-14.9l14.7,14.9a10.54,10.54,0,1,0,0-14.9" transform="translate(-0.03 -0.03)"/><line class="cls-2" x1="404.87" y1="264.67" x2="411.07" y2="264.67"/><line class="cls-2" x1="51.37" y1="264.67" x2="57.97" y2="264.67"/></svg>