<svg width="13" height="17" viewBox="0 0 13 17" version="1.1" xmlns="http://www.w3.org/2000/svg" xmlns:xlink="http://www.w3.org/1999/xlink">
<title>quickstart-icon</title>
<g id="Canvas" transform="translate(-3661 -2622)">
<g id="quickstart-icon">
<g id="Book">
<g id="Shape">
<use xlink:href="#path0_fill" transform="translate(3661 2622)" fill="#000000" fill-opacity="0.3"/>
</g>
</g>
</g>
</g>
<defs>
<path id="path0_fill" fill-rule="evenodd" d="M 12.5264 4.87654L 12.5264 14.1378C 12.5264 14.6048 12.122 14.8276 11.6317 15.1757C 11.238 15.4557 10.737 15.1086 10.737 14.6505C 10.737 14.6505 10.737 5.78826 10.737 5.60127C 10.737 5.41248 10.6708 5.23264 10.456 5.12259C 10.2413 5.01254 3.53269 1.48555 3.53269 1.48555C 3.42443 1.44529 2.95202 1.14735 2.32214 1.47124C 1.72357 1.77902 1.39789 2.11365 1.31468 2.27112L 8.63349 6.28125C 8.82765 6.38325 8.94754 6.54072 8.94754 6.74293L 8.94754 16.4077C 8.94754 16.6135 8.82049 16.8336 8.61739 16.9311C 8.52434 16.9776 8.42145 17 8.31945 17C 8.19866 17 8.07698 16.9705 7.97409 16.9069C 7.78172 16.7897 1.01853 12.6427 0.572066 12.3734C 0.357333 12.2446 0.105917 11.9806 0.100548 11.7847L 0.000339754 2.58158C 0.000339754 2.40443 -0.0202388 2.09217 0.258914 1.65823C 0.882534 0.688357 3.05849 -0.414833 4.15989 0.156893L 12.2115 4.23234C 12.4056 4.33255 12.5264 4.53297 12.5264 4.87654Z"/>
</defs>
</svg>
