<svg width="19" height="15" viewBox="0 0 19 15" version="1.1" xmlns="http://www.w3.org/2000/svg" xmlns:xlink="http://www.w3.org/1999/xlink">
<title>twitter-logo</title>
<g id="Canvas" transform="translate(-3325 -2623)">
<g id="Shape">
<use xlink:href="#path0_fill" transform="translate(3325 2623)" fill="#00ACED"/>
</g>
</g>
<defs>
<path id="path0_fill" fill-rule="evenodd" d="M 16.516 3.722C 16.524 3.884 16.527 4.048 16.527 4.21C 16.527 9.2 12.73 14.952 5.787 14.952C 3.654 14.952 1.671 14.327 0 13.255C 0.296 13.29 0.596 13.308 0.9 13.308C 2.67 13.308 4.297 12.704 5.588 11.693C 3.937 11.662 2.542 10.572 2.062 9.072C 2.292 9.115 2.529 9.138 2.772 9.138C 3.117 9.138 3.451 9.093 3.767 9.007C 2.04 8.659 0.739 7.134 0.739 5.304C 0.739 5.288 0.739 5.273 0.739 5.257C 1.248 5.54 1.831 5.71 2.449 5.73C 1.436 5.052 0.769 3.898 0.769 2.587C 0.769 1.896 0.955 1.247 1.281 0.689C 3.142 2.974 5.925 4.476 9.062 4.634C 8.998 4.357 8.965 4.07 8.965 3.773C 8.965 1.689 10.654 0 12.739 0C 13.825 0 14.806 0.457 15.495 1.191C 16.354 1.021 17.162 0.707 17.892 0.275C 17.61 1.156 17.011 1.896 16.232 2.363C 16.996 2.271 17.722 2.07 18.4 1.769C 17.894 2.527 17.254 3.191 16.516 3.722Z"/>
</defs>
</svg>
